<svg width="42" height="42" viewBox="0 0 42 42" fill="none" xmlns="http://www.w3.org/2000/svg">
<path d="M4.90723 27.0846C4.90723 27.0846 5.15573 30.1261 5.21348 31.0851C5.29048 32.3713 5.78748 33.8081 6.61698 34.8056C7.78773 36.2196 9.16673 36.7183 11.0077 36.7218C13.1725 36.7253 28.9137 36.7253 31.0785 36.7218C32.9195 36.7183 34.2985 36.2196 35.4692 34.8056C36.2987 33.8081 36.7957 32.3713 36.8745 31.0851C36.9305 30.1261 37.179 27.0846 37.179 27.0846" stroke="#FABE37" stroke-width="2.625" stroke-linecap="round" stroke-linejoin="round"/>
<path d="M14.868 9.3266V8.67735C14.868 6.54235 16.597 4.81335 18.732 4.81335H23.2505C25.3838 4.81335 27.1145 6.54235 27.1145 8.67735L27.1163 9.3266" stroke="white" stroke-width="2.625" stroke-linecap="round" stroke-linejoin="round"/>
<path d="M20.9912 29.1867V26.9222" stroke="white" stroke-width="2.625" stroke-linecap="round" stroke-linejoin="round"/>
<path fill-rule="evenodd" clip-rule="evenodd" d="M4.81238 14.6808V20.7481C8.16888 22.9618 12.1904 24.5123 16.6039 25.1266C17.1324 23.1998 18.8701 21.7876 20.9824 21.7876C23.0614 21.7876 24.8341 23.1998 25.3276 25.1441C29.7586 24.5298 33.7959 22.9793 37.1699 20.7481V14.6808C37.1699 11.7163 34.7846 9.32935 31.8201 9.32935H10.1796C7.21513 9.32935 4.81238 11.7163 4.81238 14.6808Z" stroke="white" stroke-width="2.625" stroke-linecap="round" stroke-linejoin="round"/>
</svg>
