<svg width="33" height="36" viewBox="0 0 33 36" fill="none" xmlns="http://www.w3.org/2000/svg">
<g filter="url(#filter0_f)">
<path d="M7 26C7 25.1009 7.20205 24.2133 7.59123 23.4029C7.9804 22.5924 8.54674 21.8797 9.24839 21.3175C9.95005 20.7554 10.7691 20.3581 11.6449 20.155C12.5208 19.952 13.431 19.9483 14.3085 20.1444C15.1859 20.3405 16.0081 20.7312 16.7142 21.2878C17.4203 21.8444 17.9923 22.5525 18.3879 23.3598C18.7835 24.1672 18.9926 25.0532 18.9998 25.9522C19.007 26.8513 18.812 27.7404 18.4293 28.554L13 26L7 26Z" fill="#8235FF"/>
</g>
<g filter="url(#filter1_i)">
<mask id="path-2-inside-1" fill="white">
<path d="M32.0336 18.5416C32.9883 10.5056 31.5749 5.43228 29.0256 3.13761L29.0269 3.13628C24.9123 -0.782389 11.0163 -1.36239 6.0936 3.31228C3.88293 5.59894 3.10426 8.95495 3.01893 13.1096C2.9336 17.2656 2.83226 25.0509 10.0869 27.1629H10.0936L10.0869 30.3883C10.0869 30.3883 10.0376 31.6949 10.8723 31.9576C11.8269 32.2669 12.2589 31.6603 15.2283 28.1136C20.1936 28.5443 24.0069 27.5576 24.4403 27.4136C25.4429 27.0776 31.1163 26.3269 32.0336 18.5416ZM15.7176 25.8443C15.7176 25.8443 12.5749 29.7629 11.5976 30.7803C11.2776 31.1109 10.9269 31.0803 10.9323 30.4243C10.9323 29.9936 10.9563 25.0696 10.9563 25.0696C4.8056 23.3069 5.16826 16.6776 5.23493 13.2096C5.3016 9.74028 5.93626 6.89894 7.80826 4.98561C12.1269 0.936278 24.3096 1.84161 27.4136 4.75894C31.2083 8.12294 29.8576 17.6269 29.8656 17.9509C29.0856 24.4496 24.4883 24.8616 23.6429 25.1429C23.2816 25.2629 19.9283 26.1256 15.7176 25.8443Z"/>
</mask>
<path d="M32.0336 18.5416L16.6268 16.7113L16.6259 16.7187L16.625 16.726L32.0336 18.5416ZM29.0256 3.13761L18.0521 -7.83064L6.49483 3.73215L18.6458 14.6693L29.0256 3.13761ZM29.0269 3.13628L40.0004 14.1045L51.2369 2.86273L39.7269 -8.09892L29.0269 3.13628ZM6.0936 3.31228L-4.59022 -7.93833L-4.83063 -7.71002L-5.06108 -7.47166L6.0936 3.31228ZM3.01893 13.1096L-12.493 12.791L-12.493 12.7911L3.01893 13.1096ZM10.0869 27.1629L5.75015 42.0597L7.87444 42.6781H10.0869V27.1629ZM10.0936 27.1629L25.6087 27.195L25.6408 11.6478H10.0936V27.1629ZM10.0869 30.3883L25.591 30.9736L25.6015 30.6971L25.602 30.4203L10.0869 30.3883ZM10.8723 31.9576L15.6547 17.1979L15.5923 17.1777L15.5296 17.158L10.8723 31.9576ZM15.2283 28.1136L16.5689 12.6565L8.51895 11.9583L3.33195 18.1538L15.2283 28.1136ZM24.4403 27.4136L29.333 42.1371L29.3515 42.1309L29.3701 42.1247L24.4403 27.4136ZM11.5976 30.7803L22.7468 41.5698L22.7666 41.5495L22.7862 41.529L11.5976 30.7803ZM10.9323 30.4243L26.4469 30.5504L26.4474 30.4873V30.4243H10.9323ZM10.9563 25.0696L26.4712 25.1452L26.5285 13.3926L15.2306 10.1548L10.9563 25.0696ZM5.23493 13.2096L20.7472 13.5078L20.7472 13.5077L5.23493 13.2096ZM7.80826 4.98561L-2.804 -6.33251L-3.04791 -6.10381L-3.28174 -5.86482L7.80826 4.98561ZM27.4136 4.75894L16.7879 16.0645L16.9524 16.2191L17.1213 16.3688L27.4136 4.75894ZM29.8656 17.9509L45.2702 19.7999L45.4037 18.6877L45.376 17.568L29.8656 17.9509ZM23.6429 25.1429L28.5329 39.8673L28.5423 39.8642L23.6429 25.1429ZM47.4404 20.3719C48.5293 11.2057 47.8801 -0.765927 39.4054 -8.39411L18.6458 14.6693C17.6921 13.8108 17.1685 12.984 16.9137 12.4895C16.6637 12.0044 16.6383 11.7775 16.6779 11.9611C16.77 12.3875 16.9654 13.8607 16.6268 16.7113L47.4404 20.3719ZM39.9991 14.1059L40.0004 14.1045L18.0534 -7.83197L18.0521 -7.83064L39.9991 14.1059ZM39.7269 -8.09892C36.0189 -11.6303 31.5391 -13.2842 28.4703 -14.1185C25.0657 -15.0441 21.459 -15.4749 18.0334 -15.5124C14.6116 -15.55 10.868 -15.2007 7.22756 -14.243C3.77746 -13.3353 -0.766292 -11.5696 -4.59022 -7.93833L16.7774 14.5629C16.0338 15.269 15.4172 15.6028 15.1883 15.7157C14.9486 15.834 14.9038 15.8237 15.1225 15.7662C15.3293 15.7118 15.6715 15.6416 16.1439 15.589C16.6109 15.5371 17.1372 15.5099 17.6931 15.516C18.2486 15.5221 18.7821 15.5609 19.2612 15.6231C19.746 15.6861 20.1061 15.7642 20.3296 15.8249C20.5714 15.8907 20.5262 15.9013 20.2652 15.7742C20.125 15.7058 19.8808 15.5773 19.5655 15.3681C19.2527 15.1604 18.8171 14.8383 18.3269 14.3715L39.7269 -8.09892ZM-5.06108 -7.47166C-11.4449 -0.868396 -12.3841 7.49135 -12.493 12.791L18.5308 13.4282C18.5433 12.8195 18.5786 12.3944 18.6142 12.116C18.6499 11.8374 18.6771 11.7751 18.6486 11.8724C18.6182 11.9763 18.5195 12.2778 18.2904 12.6946C18.0543 13.1245 17.7127 13.6158 17.2483 14.0962L-5.06108 -7.47166ZM-12.493 12.7911C-12.5305 14.6177 -12.7439 20.0914 -10.9808 25.6181C-8.9284 32.052 -3.94844 39.2362 5.75015 42.0597L14.4237 12.2662C15.2159 12.4968 16.3312 13.0776 17.3026 14.1283C18.1852 15.083 18.5031 15.9411 18.5817 16.1875C18.6484 16.3966 18.5863 16.2933 18.5463 15.7064C18.5063 15.119 18.5094 14.4722 18.5308 13.4281L-12.493 12.7911ZM10.0869 42.6781H10.0936V11.6478H10.0869V42.6781ZM-5.42153 27.1309L-5.42819 30.3562L25.602 30.4203L25.6087 27.195L-5.42153 27.1309ZM10.0869 30.3883C-5.41718 29.8029 -5.41736 29.8078 -5.41755 29.8127C-5.41761 29.8144 -5.41779 29.8193 -5.41791 29.8226C-5.41815 29.8292 -5.41839 29.8358 -5.41862 29.8425C-5.41909 29.8559 -5.41955 29.8695 -5.42 29.8832C-5.4209 29.9106 -5.42175 29.9388 -5.42253 29.9676C-5.42411 30.0253 -5.42546 30.0859 -5.4265 30.1493C-5.42857 30.2759 -5.42941 30.415 -5.42825 30.5653C-5.42594 30.863 -5.41563 31.2209 -5.38872 31.6257C-5.33838 32.383 -5.21458 33.5518 -4.86418 34.921C-4.38346 36.7994 -2.12076 44.134 6.21487 46.7572L15.5296 17.158C19.1411 18.2945 21.6034 20.5764 23.0651 22.6434C24.4037 24.5362 24.9575 26.2907 25.1974 27.2279C25.4558 28.2376 25.5397 29.0633 25.5732 29.5674C25.5917 29.8456 25.5994 30.0993 25.6011 30.3245C25.602 30.4387 25.6014 30.5494 25.5997 30.6567C25.5988 30.7105 25.5976 30.7637 25.5962 30.8164C25.5954 30.8428 25.5946 30.8691 25.5938 30.8953C25.5934 30.9084 25.5929 30.9214 25.5925 30.9345C25.5922 30.941 25.592 30.9476 25.5918 30.9541C25.5916 30.9573 25.5915 30.9622 25.5914 30.9639C25.5912 30.9688 25.591 30.9736 10.0869 30.3883ZM6.0898 46.7173C8.26637 47.4225 11.9115 48.1185 16.1465 46.8012C19.6843 45.7007 21.9705 43.6704 22.858 42.8455C24.3847 41.4264 26.1544 39.2323 27.1246 38.0734L3.33195 18.1538C2.51923 19.1245 2.04735 19.6932 1.65843 20.1461C1.21267 20.6652 1.33828 20.4833 1.73151 20.1177C2.02047 19.8491 3.83415 18.1342 6.92961 17.1713C10.7223 15.9915 13.9555 16.6473 15.6547 17.1979L6.0898 46.7173ZM13.8876 43.5707C21.1967 44.2047 27.133 42.8682 29.333 42.1371L19.5475 12.6901C19.8213 12.5992 20.0213 12.542 20.0826 12.5246C20.1726 12.4991 20.2345 12.4829 20.2644 12.4752C20.3252 12.4596 20.3273 12.4603 20.2733 12.4719C20.1661 12.4948 19.9112 12.5445 19.5413 12.5924C18.7791 12.6911 17.7242 12.7567 16.5689 12.6565L13.8876 43.5707ZM29.3701 42.1247C27.3156 42.8132 33.1612 41.3893 37.3785 38.3304C42.6569 34.5018 46.4928 28.4141 47.4422 20.3572L16.625 16.726C16.6139 16.8209 16.6716 16.2604 17.1685 15.4007C17.6748 14.5249 18.3858 13.7729 19.1593 13.2118C19.8823 12.6875 20.5123 12.4348 20.8191 12.328C20.973 12.2744 21.0655 12.2515 20.994 12.2707C20.9724 12.2765 20.9454 12.2836 20.8937 12.2972C20.8559 12.3071 20.7644 12.3311 20.679 12.3539C20.5838 12.3793 20.0815 12.5111 19.5105 12.7025L29.3701 42.1247ZM15.7176 25.8443C3.61396 16.1375 3.61406 16.1373 3.61416 16.1372C3.61417 16.1372 3.61426 16.1371 3.61429 16.1371C3.61435 16.137 3.61437 16.137 3.61434 16.137C3.61428 16.1371 3.61403 16.1374 3.6136 16.1379C3.61274 16.139 3.61114 16.141 3.60882 16.1439C3.60418 16.1497 3.59668 16.159 3.58647 16.1717C3.56604 16.1971 3.53481 16.236 3.49408 16.2866C3.41253 16.3879 3.29327 16.5359 3.1465 16.7174C2.85158 17.0822 2.45217 17.5742 2.02795 18.0914C0.97191 19.379 0.379417 20.0623 0.40897 20.0316L22.7862 41.529C23.7931 40.4809 25.2606 38.6963 26.0202 37.7701C26.5038 37.1805 26.9512 36.6293 27.2761 36.2275C27.4392 36.0258 27.5731 35.8596 27.6672 35.7427C27.7143 35.6842 27.7516 35.6378 27.7777 35.6054C27.7907 35.5891 27.801 35.5763 27.8083 35.5672C27.8119 35.5627 27.8149 35.559 27.817 35.5563C27.8181 35.555 27.819 35.5539 27.8197 35.553C27.8201 35.5525 27.8204 35.5522 27.8206 35.5518C27.8207 35.5517 27.8209 35.5515 27.821 35.5514C27.8211 35.5512 27.8212 35.5511 15.7176 25.8443ZM0.448372 19.9907C1.32744 19.0823 2.8908 17.7063 5.24064 16.6981C7.60945 15.6818 11.8552 14.6426 16.6615 16.4718C21.6415 18.367 24.218 22.1879 25.3308 24.8844C26.3667 27.3944 26.4551 29.5374 26.4469 30.5504L-4.58238 30.2981C-4.59328 31.6392 -4.46297 34.032 -3.35287 36.7219C-2.16579 39.5983 0.517388 43.5292 5.62435 45.4728C10.5577 47.3503 14.9507 46.2978 17.4751 45.2147C19.9806 44.1398 21.7077 42.6436 22.7468 41.5698L0.448372 19.9907ZM26.4474 30.4243C26.4474 30.4263 26.4474 30.4205 26.4475 30.4031C26.4475 30.3871 26.4475 30.3658 26.4476 30.3388C26.4478 30.2848 26.448 30.2143 26.4483 30.1284C26.449 29.957 26.4499 29.7327 26.451 29.4728C26.4533 28.9534 26.4562 28.2997 26.4592 27.6579C26.4622 27.0164 26.4652 26.3882 26.4675 25.9203C26.4686 25.6863 26.4695 25.4925 26.4702 25.3572C26.4705 25.2895 26.4708 25.2365 26.471 25.2004C26.4711 25.1824 26.4711 25.1686 26.4712 25.1593C26.4712 25.1546 26.4712 25.1511 26.4712 25.1488C26.4712 25.1476 26.4712 25.1467 26.4712 25.1461C26.4712 25.1458 26.4712 25.1456 26.4712 25.1454C26.4712 25.1454 26.4712 25.1453 26.4712 25.1453C26.4712 25.1452 26.4712 25.1452 10.9563 25.0696C-4.55871 24.994 -4.55871 24.994 -4.55871 24.9941C-4.55871 24.9941 -4.55871 24.9942 -4.55871 24.9942C-4.55871 24.9944 -4.55871 24.9946 -4.55871 24.9949C-4.55871 24.9955 -4.55872 24.9964 -4.55872 24.9976C-4.55874 25 -4.55875 25.0036 -4.55878 25.0082C-4.55882 25.0176 -4.55889 25.0315 -4.55898 25.0496C-4.55915 25.0859 -4.55941 25.139 -4.55974 25.2069C-4.5604 25.3425 -4.56134 25.5368 -4.56246 25.7712C-4.56471 26.2399 -4.56772 26.8696 -4.57072 27.513C-4.57656 28.7639 -4.58289 30.1612 -4.58289 30.4243H26.4474ZM15.2306 10.1548C16.3592 10.4783 17.7898 11.2453 18.9986 12.5905C20.1075 13.8246 20.5282 14.9846 20.666 15.4602C20.792 15.8949 20.755 16.0053 20.7343 15.559C20.7113 15.0624 20.7255 14.6387 20.7472 13.5078L-10.2774 12.9114C-10.2969 13.9301 -10.5984 19.0583 -9.13781 24.0981C-7.36154 30.2268 -2.7061 37.2939 6.68197 39.9844L15.2306 10.1548ZM20.7472 13.5077C20.7659 12.5338 20.8615 12.4362 20.7461 12.8343C20.598 13.3453 20.1217 14.5856 18.8983 15.836L-3.28174 -5.86482C-9.44142 0.430869 -10.1907 8.40406 -10.2774 12.9115L20.7472 13.5077ZM18.4205 16.3037C17.5474 17.1224 16.7832 17.5358 16.4148 17.7106C16.0365 17.8902 15.8499 17.9253 15.9371 17.904C16.0111 17.886 16.2193 17.8431 16.5639 17.8103C16.9023 17.778 17.3011 17.7621 17.7353 17.7714C18.1687 17.7806 18.5848 17.8138 18.9536 17.8625C19.3287 17.9121 19.5849 17.9684 19.7109 18.0015C19.8615 18.041 19.7074 18.0153 19.3318 17.8412C19.1332 17.7492 18.8085 17.5859 18.4018 17.3272C18.002 17.0729 17.4281 16.6662 16.7879 16.0645L38.0393 -6.5466C34.4237 -9.94476 30.0547 -11.3652 27.5852 -12.0131C24.6119 -12.7932 21.4375 -13.1869 18.3976 -13.2518C15.3675 -13.3165 11.9554 -13.0656 8.577 -12.2408C5.40246 -11.4657 0.971284 -9.87235 -2.804 -6.33251L18.4205 16.3037ZM17.1213 16.3688C16.0651 15.4324 15.4282 14.4968 15.0717 13.8603C14.7207 13.2335 14.5722 12.7752 14.5249 12.6161C14.4507 12.3667 14.5281 12.5345 14.5627 13.2469C14.5935 13.8824 14.5734 14.574 14.5322 15.1899C14.5127 15.481 14.4904 15.7295 14.4704 15.9361C14.4652 15.9902 14.4601 16.0415 14.4545 16.0984C14.4498 16.1456 14.4419 16.2244 14.4352 16.2939C14.4297 16.3505 14.4159 16.4942 14.4028 16.6579C14.3963 16.7393 14.3842 16.8962 14.3737 17.0903C14.3678 17.1991 14.3395 17.6996 14.3552 18.3339L45.376 17.568C45.4053 18.7537 45.254 19.9785 45.3216 19.2788C45.3234 19.26 45.326 19.2346 45.3331 19.1624C45.3393 19.0999 45.3476 19.0167 45.3567 18.922C45.3943 18.5337 45.4465 17.9603 45.4932 17.2623C45.5844 15.8999 45.6633 13.9445 45.5565 11.743C45.4534 9.61839 45.1564 6.7592 44.268 3.77159C43.4172 0.910223 41.6434 -3.36024 37.7058 -6.85094L17.1213 16.3688ZM14.461 16.102C14.4815 15.9314 14.6172 15.1064 15.2553 14.0041C15.9116 12.8703 16.8326 11.905 17.8578 11.1845C18.8238 10.5056 19.685 10.1808 20.1366 10.0364C20.3581 9.96558 20.5063 9.9313 20.4365 9.94838C20.4108 9.95467 20.3919 9.9592 20.3292 9.97435C20.2822 9.98571 20.1873 10.0086 20.0834 10.0346C19.9608 10.0652 19.4005 10.203 18.7436 10.4217L28.5423 39.8642C25.6139 40.8388 31.8726 39.262 35.6997 36.5724C40.9116 32.9096 44.3942 27.098 45.2702 19.7999L14.461 16.102ZM18.7529 10.4186C19.0457 10.3213 19.262 10.26 19.321 10.2434C19.4145 10.2169 19.4803 10.1997 19.5139 10.1911C19.5823 10.1735 19.5968 10.1712 19.5597 10.1792C19.4863 10.1951 19.2869 10.2352 18.9927 10.276C18.3749 10.3617 17.5708 10.4184 16.7519 10.3636L14.6833 41.3249C21.1205 41.755 26.487 40.5468 28.5329 39.8673L18.7529 10.4186Z" fill="white" fill-opacity="0.1" mask="url(#path-2-inside-1)"/>
</g>
<g filter="url(#filter2_ii)">
<path d="M17.1127 7.1099C17.25 7 17.3325 7 17.7721 7C17.9919 7 18.3216 7.02748 18.5139 7.05497C19.4206 7.16487 19.9976 7.30226 20.7944 7.6869C21.5912 8.07157 22.0858 8.42873 22.7727 9.0607C23.4046 9.66518 23.7344 10.1323 24.119 10.8741C24.641 11.8907 24.9158 13.0722 24.9708 14.391C24.9983 14.8306 24.9708 14.9405 24.8609 15.0779C24.6685 15.3252 24.2289 15.2977 24.0641 14.9955C24.0091 14.9131 24.0091 14.8306 23.9817 14.4735C23.9542 13.924 23.9267 13.5668 23.8443 13.1272C23.542 11.4511 22.7178 10.1048 21.3989 9.14315C20.2999 8.34635 19.3382 8.04412 17.8545 7.93422C17.3325 7.93422 17.25 7.93422 17.1401 7.82432C16.9203 7.6869 16.9203 7.30222 17.1127 7.1099Z" fill="white" fill-opacity="0.03"/>
</g>
<g filter="url(#filter3_ii)">
<path d="M19.8327 10.5445C19.3107 10.2423 18.5139 9.99502 17.7995 9.94006C17.5522 9.91257 17.3874 9.85764 17.3049 9.74773C17.14 9.61035 17.14 9.36306 17.2499 9.19822C17.3873 8.97841 17.6071 8.95093 18.2391 9.06083C19.8327 9.28064 21.0691 10.0225 21.8933 11.204C22.3604 11.8634 22.6352 12.6602 22.7176 13.4845C22.7451 13.7867 22.7451 14.3362 22.7176 14.4461C22.6901 14.5285 22.5802 14.6659 22.4703 14.6934C22.3604 14.7484 22.1406 14.7484 22.0307 14.6659C21.8384 14.556 21.756 14.4186 21.756 13.979C21.756 13.3196 21.5911 12.6052 21.2614 12.0557C20.9317 11.4238 20.4372 10.9017 19.8327 10.5445Z" fill="white" fill-opacity="0.03"/>
</g>
<g filter="url(#filter4_ii)">
<path d="M20.5197 14.1712C20.3549 14.3086 20.0801 14.3086 19.9152 14.1712C19.7779 14.0888 19.7504 13.9789 19.7229 13.7041C19.6954 13.3469 19.613 13.0996 19.5306 12.8798C19.3108 12.3852 18.8987 12.138 18.2118 12.0555C17.8821 12.028 17.7997 11.9731 17.6898 11.8632C17.4974 11.6434 17.5799 11.2862 17.8271 11.1488C17.937 11.0938 17.9645 11.0938 18.1843 11.1213C18.3217 11.1213 18.514 11.1488 18.6239 11.1763C19.146 11.2862 19.5306 11.4785 19.8878 11.7808C20.3274 12.1929 20.5747 12.66 20.6571 13.3744C20.712 13.8415 20.6846 14.0338 20.5197 14.1712Z" fill="white" fill-opacity="0.03"/>
</g>
<g filter="url(#filter5_ii)">
<path d="M24.9432 20.0238C24.9432 19.7765 24.8608 19.5842 24.696 19.3919C24.5311 19.1996 23.4046 18.2929 22.8551 17.9357C22.4429 17.6609 21.811 17.2762 21.5362 17.1389C21.1516 16.9465 20.7669 16.9191 20.4097 17.029C20.3273 17.0564 20.2723 17.0839 20.2174 17.1114C20.0525 17.1938 19.9152 17.3587 19.5855 17.7433C19.3657 18.0181 19.1734 18.2653 19.1459 18.2653C19.1459 18.2653 19.1184 18.2653 19.1184 18.2928C19.0909 18.3203 19.0085 18.3478 18.9535 18.3752C18.5963 18.5401 18.1292 18.4302 17.3599 18.073C16.7554 17.7708 16.2334 17.4136 15.6289 16.8641C15.1069 16.397 14.5848 15.82 14.3101 15.3529C13.9254 14.7484 13.6507 13.9791 13.6507 13.5395C13.6507 13.3472 13.7331 13.0999 13.8156 12.9625L13.843 12.935C13.843 12.935 13.843 12.935 13.8705 12.9075C13.898 12.88 13.9255 12.8526 13.9529 12.8526C14.0628 12.7701 14.2002 12.6327 14.3376 12.5228C14.9695 12.0283 15.1069 11.8634 15.1894 11.5887C15.2718 11.3139 15.1894 10.9567 14.9146 10.4621C14.42 9.55547 13.0462 7.82447 12.5516 7.49477C12.4692 7.4398 12.3318 7.38486 12.2494 7.3299C12.0296 7.27493 11.7274 7.24748 11.5625 7.27493C11.3152 7.3299 11.013 7.52222 10.3261 8.01677C9.91397 8.31899 9.36443 8.84105 9.22707 9.06086C8.92485 9.58289 8.9523 9.99505 9.30949 11.0117C9.6392 11.9184 10.0788 12.8251 10.5734 13.7043L10.6009 13.7318C10.7108 13.8966 10.8207 14.089 10.9306 14.2538C10.9306 14.2813 10.9581 14.2813 10.9581 14.3088C11.068 14.4736 11.1779 14.666 11.2878 14.8308C11.3427 14.8858 11.3702 14.9682 11.4252 15.0231C11.5076 15.1605 11.59 15.2704 11.6999 15.4078C11.8373 15.6001 11.9747 15.7925 12.1395 15.9848C13.7057 18.018 15.5191 19.6666 17.6622 21.0129C17.6897 21.0404 17.7171 21.0404 17.7446 21.0679C18.0743 21.2602 18.404 21.4526 18.7337 21.6449C18.7887 21.6724 18.8161 21.6998 18.8711 21.7273C19.2008 21.9196 19.558 22.0845 19.9152 22.2493C19.9427 22.2768 19.9976 22.2768 20.0251 22.3043C20.3823 22.4692 20.7669 22.634 21.1516 22.7989C21.6187 22.9912 21.7835 23.0187 22.1407 22.9912C22.3056 22.9912 22.4704 22.9637 22.6078 22.9088C22.8276 22.8538 23.0199 22.7439 23.2672 22.5791C23.3222 22.5516 23.3496 22.5241 23.4046 22.4966C23.4596 22.4692 23.5145 22.4142 23.5695 22.3593C23.8717 22.112 24.2014 21.7273 24.4762 21.3701C24.6685 21.1228 24.8059 20.8756 24.8883 20.6832C24.9158 20.4085 24.9432 20.2161 24.9432 20.0238Z" fill="white" fill-opacity="0.03"/>
</g>
<path d="M8 23.5001C9.2 24.7001 10.5 25.0001 11 25.0001V27H10C8.4 27 6.33333 25.0001 5.5 24.0001C5.83333 23.3334 6.8 22.3001 8 23.5001Z" fill="#8235FF"/>
<defs>
<filter id="filter0_f" x="0" y="13" width="26" height="22.554" filterUnits="userSpaceOnUse" color-interpolation-filters="sRGB">
<feFlood flood-opacity="0" result="BackgroundImageFix"/>
<feBlend mode="normal" in="SourceGraphic" in2="BackgroundImageFix" result="shape"/>
<feGaussianBlur stdDeviation="3.5" result="effect1_foregroundBlur"/>
</filter>
<filter id="filter1_i" x="3" y="0" width="29.3332" height="32.1173" filterUnits="userSpaceOnUse" color-interpolation-filters="sRGB">
<feFlood flood-opacity="0" result="BackgroundImageFix"/>
<feBlend mode="normal" in="SourceGraphic" in2="BackgroundImageFix" result="shape"/>
<feColorMatrix in="SourceAlpha" type="matrix" values="0 0 0 0 0 0 0 0 0 0 0 0 0 0 0 0 0 0 127 0" result="hardAlpha"/>
<feOffset dy="0.0890768"/>
<feGaussianBlur stdDeviation="0.0445384"/>
<feComposite in2="hardAlpha" operator="arithmetic" k2="-1" k3="1"/>
<feColorMatrix type="matrix" values="0 0 0 0 1 0 0 0 0 1 0 0 0 0 1 0 0 0 0.3 0"/>
<feBlend mode="normal" in2="shape" result="effect1_innerShadow"/>
</filter>
<filter id="filter2_ii" x="16.9717" y="7" width="8.00901" height="8.61228" filterUnits="userSpaceOnUse" color-interpolation-filters="sRGB">
<feFlood flood-opacity="0" result="BackgroundImageFix"/>
<feBlend mode="normal" in="SourceGraphic" in2="BackgroundImageFix" result="shape"/>
<feColorMatrix in="SourceAlpha" type="matrix" values="0 0 0 0 0 0 0 0 0 0 0 0 0 0 0 0 0 0 127 0" result="hardAlpha"/>
<feOffset dy="0.367442"/>
<feGaussianBlur stdDeviation="0.183721"/>
<feComposite in2="hardAlpha" operator="arithmetic" k2="-1" k3="1"/>
<feColorMatrix type="matrix" values="0 0 0 0 1 0 0 0 0 1 0 0 0 0 1 0 0 0 0.15 0"/>
<feBlend mode="normal" in2="shape" result="effect1_innerShadow"/>
<feColorMatrix in="SourceAlpha" type="matrix" values="0 0 0 0 0 0 0 0 0 0 0 0 0 0 0 0 0 0 127 0" result="hardAlpha"/>
<feOffset/>
<feGaussianBlur stdDeviation="3.12326"/>
<feComposite in2="hardAlpha" operator="arithmetic" k2="-1" k3="1"/>
<feColorMatrix type="matrix" values="0 0 0 0 1 0 0 0 0 1 0 0 0 0 1 0 0 0 0.05 0"/>
<feBlend mode="normal" in2="effect1_innerShadow" result="effect2_innerShadow"/>
</filter>
<filter id="filter3_ii" x="17.1733" y="8.99805" width="5.5649" height="6.10112" filterUnits="userSpaceOnUse" color-interpolation-filters="sRGB">
<feFlood flood-opacity="0" result="BackgroundImageFix"/>
<feBlend mode="normal" in="SourceGraphic" in2="BackgroundImageFix" result="shape"/>
<feColorMatrix in="SourceAlpha" type="matrix" values="0 0 0 0 0 0 0 0 0 0 0 0 0 0 0 0 0 0 127 0" result="hardAlpha"/>
<feOffset dy="0.367442"/>
<feGaussianBlur stdDeviation="0.183721"/>
<feComposite in2="hardAlpha" operator="arithmetic" k2="-1" k3="1"/>
<feColorMatrix type="matrix" values="0 0 0 0 1 0 0 0 0 1 0 0 0 0 1 0 0 0 0.15 0"/>
<feBlend mode="normal" in2="shape" result="effect1_innerShadow"/>
<feColorMatrix in="SourceAlpha" type="matrix" values="0 0 0 0 0 0 0 0 0 0 0 0 0 0 0 0 0 0 127 0" result="hardAlpha"/>
<feOffset/>
<feGaussianBlur stdDeviation="3.12326"/>
<feComposite in2="hardAlpha" operator="arithmetic" k2="-1" k3="1"/>
<feColorMatrix type="matrix" values="0 0 0 0 1 0 0 0 0 1 0 0 0 0 1 0 0 0 0.05 0"/>
<feBlend mode="normal" in2="effect1_innerShadow" result="effect2_innerShadow"/>
</filter>
<filter id="filter4_ii" x="17.5835" y="11.1033" width="3.09933" height="3.53839" filterUnits="userSpaceOnUse" color-interpolation-filters="sRGB">
<feFlood flood-opacity="0" result="BackgroundImageFix"/>
<feBlend mode="normal" in="SourceGraphic" in2="BackgroundImageFix" result="shape"/>
<feColorMatrix in="SourceAlpha" type="matrix" values="0 0 0 0 0 0 0 0 0 0 0 0 0 0 0 0 0 0 127 0" result="hardAlpha"/>
<feOffset dy="0.367442"/>
<feGaussianBlur stdDeviation="0.183721"/>
<feComposite in2="hardAlpha" operator="arithmetic" k2="-1" k3="1"/>
<feColorMatrix type="matrix" values="0 0 0 0 1 0 0 0 0 1 0 0 0 0 1 0 0 0 0.15 0"/>
<feBlend mode="normal" in2="shape" result="effect1_innerShadow"/>
<feColorMatrix in="SourceAlpha" type="matrix" values="0 0 0 0 0 0 0 0 0 0 0 0 0 0 0 0 0 0 127 0" result="hardAlpha"/>
<feOffset/>
<feGaussianBlur stdDeviation="3.12326"/>
<feComposite in2="hardAlpha" operator="arithmetic" k2="-1" k3="1"/>
<feColorMatrix type="matrix" values="0 0 0 0 1 0 0 0 0 1 0 0 0 0 1 0 0 0 0.05 0"/>
<feBlend mode="normal" in2="effect1_innerShadow" result="effect2_innerShadow"/>
</filter>
<filter id="filter5_ii" x="9.01929" y="7.26416" width="15.924" height="16.1035" filterUnits="userSpaceOnUse" color-interpolation-filters="sRGB">
<feFlood flood-opacity="0" result="BackgroundImageFix"/>
<feBlend mode="normal" in="SourceGraphic" in2="BackgroundImageFix" result="shape"/>
<feColorMatrix in="SourceAlpha" type="matrix" values="0 0 0 0 0 0 0 0 0 0 0 0 0 0 0 0 0 0 127 0" result="hardAlpha"/>
<feOffset dy="0.367442"/>
<feGaussianBlur stdDeviation="0.183721"/>
<feComposite in2="hardAlpha" operator="arithmetic" k2="-1" k3="1"/>
<feColorMatrix type="matrix" values="0 0 0 0 1 0 0 0 0 1 0 0 0 0 1 0 0 0 0.15 0"/>
<feBlend mode="normal" in2="shape" result="effect1_innerShadow"/>
<feColorMatrix in="SourceAlpha" type="matrix" values="0 0 0 0 0 0 0 0 0 0 0 0 0 0 0 0 0 0 127 0" result="hardAlpha"/>
<feOffset/>
<feGaussianBlur stdDeviation="3.12326"/>
<feComposite in2="hardAlpha" operator="arithmetic" k2="-1" k3="1"/>
<feColorMatrix type="matrix" values="0 0 0 0 1 0 0 0 0 1 0 0 0 0 1 0 0 0 0.05 0"/>
<feBlend mode="normal" in2="effect1_innerShadow" result="effect2_innerShadow"/>
</filter>
</defs>
</svg>
