<svg width="9" height="8" viewBox="0 0 9 8" fill="none" xmlns="http://www.w3.org/2000/svg">
<path fill-rule="evenodd" clip-rule="evenodd" d="M6.97004 0.970036C7.10999 0.831308 7.29891 0.753232 7.49597 0.752688C7.69302 0.752145 7.88238 0.829177 8.02309 0.967131C8.1638 1.10508 8.24457 1.29288 8.24793 1.4899C8.25128 1.68693 8.17697 1.87737 8.04104 2.02004L4.04904 7.01004C3.98043 7.08393 3.89762 7.14324 3.80557 7.1844C3.71352 7.22557 3.61411 7.24775 3.51329 7.24961C3.41247 7.25148 3.31231 7.233 3.21879 7.19527C3.12528 7.15754 3.04033 7.10134 2.96904 7.03004L0.324036 4.38404C0.250349 4.31537 0.191247 4.23257 0.150255 4.14057C0.109263 4.04858 0.0872207 3.94926 0.0854439 3.84856C0.0836671 3.74786 0.102192 3.64783 0.139913 3.55444C0.177634 3.46105 0.233779 3.37622 0.304997 3.305C0.376216 3.23378 0.46105 3.17763 0.554438 3.13991C0.647826 3.10219 0.747855 3.08367 0.848558 3.08544C0.949261 3.08722 1.04857 3.10926 1.14057 3.15026C1.23257 3.19125 1.31537 3.25035 1.38404 3.32404L3.47804 5.41704L6.95104 0.992036C6.95723 0.98429 6.96391 0.976942 6.97104 0.970036H6.97004Z" fill="white"/>
</svg>
