<svg width="303" height="61" viewBox="0 0 303 61" fill="none" xmlns="http://www.w3.org/2000/svg">
<path d="M27.616 20.424H32.296C36.292 26.4 36.832 27.3 38.164 30H42.376V28.812H39.244C38.416 27.444 37.156 25.5 33.772 20.424C34.816 20.316 35.356 20.208 36.04 19.956C38.164 19.128 39.46 17.256 39.46 15.024C39.46 12.864 38.2 10.884 36.4 10.2C35.464 9.84 34.636 9.732 32.476 9.732H23.26V10.92H26.284V28.812H23.26V30H30.892V28.812H27.616V20.424ZM27.616 19.344V10.92H32.476C34.384 10.92 35.104 10.992 35.788 11.28C37.156 11.82 38.056 13.296 38.056 14.916C38.056 16.896 36.904 18.408 34.924 19.02C34.096 19.272 33.232 19.344 31.396 19.344H27.616ZM45.7099 9.732V10.92H48.8419V28.812H45.7099V30H63.0619V23.736H61.8739L61.6579 28.812H50.1739V19.848H56.6899V22.548H57.8419V15.96H56.6899V18.66H50.1739V10.92H61.2979L61.6579 15.96H62.8819L62.7379 9.732H45.7099ZM82.7759 9.192C82.5959 10.236 82.3439 10.704 81.9839 10.704C81.8759 10.704 81.7679 10.668 81.6239 10.596C79.6439 9.48 78.3479 9.084 76.4759 9.084C72.3359 9.084 69.1319 11.748 69.1319 15.204C69.1319 17.256 70.3199 19.056 72.2639 19.92C73.4879 20.46 74.4959 20.676 76.7279 20.856C78.9239 21.072 79.7159 21.18 80.4719 21.504C81.8759 22.08 82.5239 23.088 82.5239 24.636C82.5239 27.552 80.1119 29.316 76.1159 29.316C72.0119 29.316 69.9239 27.732 69.1679 24.06L67.9799 24.312C68.3759 25.716 68.5559 26.904 68.5559 27.84C68.5559 28.56 68.4839 29.244 68.2319 30.54L69.4919 30.72C69.5999 29.568 69.8159 29.028 70.2119 29.028C70.3919 29.028 70.5359 29.1 71.2919 29.496C72.6239 30.216 74.5679 30.648 76.4399 30.648C80.8319 30.648 83.9279 28.164 83.9279 24.636C83.9279 23.016 83.2439 21.612 82.0559 20.856C80.7599 20.028 79.9319 19.812 76.4759 19.524C74.8199 19.38 73.5239 19.092 72.6959 18.66C71.2919 17.904 70.5359 16.716 70.5359 15.204C70.5359 12.432 73.0919 10.416 76.5479 10.416C78.7079 10.416 80.6519 11.244 81.4079 12.504C81.8399 13.188 82.0919 14.088 82.2359 15.78L83.5319 15.672C83.3519 14.808 83.2439 13.8 83.2439 13.116C83.2439 12.072 83.3879 11.28 83.9639 9.444L82.7759 9.192ZM90.4658 9.732V10.92H96.9098V28.812H90.4658V30H104.686V28.812H98.2418V10.92H104.686V9.732H90.4658ZM111.692 9.732V16.32H112.844V10.92H124.472L111.44 28.668V30H126.884V22.836H125.732V28.812H112.844L126.056 10.92V9.732H111.692ZM132.054 9.732V10.92H135.186V28.812H132.054V30H149.406V23.736H148.218L148.002 28.812H136.518V19.848H143.034V22.548H144.186V15.96H143.034V18.66H136.518V10.92H147.642L148.002 15.96H149.226L149.082 9.732H132.054ZM162.352 26.04C160.912 26.04 159.76 27.048 159.76 28.308C159.76 29.532 160.912 30.54 162.352 30.54C163.756 30.54 164.908 29.532 164.908 28.308C164.908 27.048 163.756 26.04 162.352 26.04ZM177.278 9.732V10.92H182.714L175.334 28.812H173.462V30H180.518V28.812H176.558L178.934 23.124H188.87L191.21 28.812H187.322V30H194.378V28.812H192.578L184.766 9.732H177.278ZM183.902 10.92L188.474 22.044H179.366L183.902 10.92ZM206.424 21.432V22.62H211.932V28.128C209.232 29.028 207.648 29.352 205.992 29.352C200.736 29.352 197.496 25.752 197.496 19.956C197.496 14.412 200.808 10.452 205.452 10.452C207.612 10.452 209.556 11.352 210.78 12.864C211.536 13.836 211.968 14.88 212.22 16.536L213.444 16.32C213.12 14.772 213.012 13.98 213.012 13.116C213.012 12.216 213.156 11.136 213.444 9.984L212.22 9.732C212.112 10.848 211.86 11.388 211.5 11.388C211.392 11.388 211.212 11.28 211.032 11.172C209.088 9.66 207.576 9.12 205.416 9.12C199.979 9.12 195.984 13.764 195.984 19.992C195.984 26.436 199.944 30.684 205.92 30.684C208.08 30.684 210.492 30.108 213.264 28.992V22.62H215.027V21.432H206.424ZM218.397 9.732V10.92H221.529V28.812H218.397V30H235.749V23.736H234.561L234.345 28.812H222.861V19.848H229.377V22.548H230.529V15.96H229.377V18.66H222.861V10.92H233.985L234.345 15.96H235.569L235.425 9.732H218.397ZM238.507 9.732V10.92H241.567V28.812H238.507V30H246.715V28.812H242.791V10.92L254.383 30.468H256.147V10.92H258.775V9.732H251.071V10.92H254.923V28.992L243.511 9.732H238.507ZM277.769 9.732C277.589 10.848 277.445 11.136 277.085 11.136C276.977 11.136 276.761 11.064 276.581 10.92C274.673 9.768 274.673 9.768 274.277 9.624C273.233 9.264 272.189 9.084 271.145 9.084C265.565 9.084 261.533 13.512 261.533 19.632C261.533 26.148 265.493 30.648 271.289 30.648C273.809 30.648 276.473 29.712 278.957 27.912L278.093 26.832C275.465 28.596 273.521 29.316 271.253 29.316C268.877 29.316 266.681 28.38 265.313 26.76C263.909 25.104 263.045 22.404 263.045 19.596C263.045 14.232 266.465 10.416 271.253 10.416C273.233 10.416 274.997 11.172 276.293 12.54C277.157 13.476 277.517 14.34 277.769 16.428L278.957 16.176C278.669 15.096 278.561 14.088 278.561 12.972C278.561 12 278.633 11.496 278.957 9.912L277.769 9.732ZM282.183 9.732V10.92H284.379L291.219 22.152V28.812H286.791V30H296.907V28.812H292.551V22.152L299.319 10.92H301.515V9.732H294.891V10.92H297.951L291.939 20.892L285.855 10.92H288.879V9.732H282.183Z" fill="white"/>
<path d="M2.745 56V50.435L7.65 56H9.165L4.08 50.39L8.76 45.32H7.32L2.745 50.405V45.32H1.605V56H2.745ZM16.3703 52.325C16.3703 49.715 15.5153 48.53 13.6103 48.53C13.1453 48.53 12.7553 48.605 12.4253 48.77C12.1103 48.935 11.9303 49.085 11.5853 49.49V48.62H10.5053V59.3H11.5853V55.13C11.9453 55.55 12.1253 55.7 12.4403 55.85C12.7853 56.015 13.1753 56.09 13.6253 56.09C15.5003 56.09 16.3703 54.89 16.3703 52.325ZM15.2903 52.325C15.2903 54.29 14.7353 55.13 13.4453 55.13C12.1403 55.13 11.5853 54.29 11.5853 52.31C11.5853 50.345 12.1403 49.49 13.4303 49.49C14.7503 49.49 15.2903 50.315 15.2903 52.325ZM24.3341 52.595V52.1C24.3341 49.895 23.1791 48.53 21.3041 48.53C19.4291 48.53 18.2741 49.94 18.2741 52.265C18.2741 54.77 19.3991 56.09 21.5291 56.09C22.0691 56.09 22.5491 56 22.9541 55.835C23.4041 55.655 23.6591 55.475 24.1991 54.95L23.4641 54.305C23.0591 54.695 22.8641 54.83 22.5341 54.965C22.2641 55.07 21.9341 55.145 21.5891 55.145C20.5841 55.145 19.9241 54.755 19.5791 53.93C19.4291 53.57 19.3841 53.27 19.3541 52.595H24.3341ZM23.2541 51.785H19.3541C19.3841 51.125 19.4291 50.885 19.5791 50.555C19.8791 49.865 20.5241 49.445 21.3041 49.445C22.1741 49.445 22.8641 49.955 23.1191 50.81C23.2091 51.08 23.2241 51.215 23.2541 51.785ZM31.8982 56V50.99C31.8982 49.355 30.8932 48.53 28.9132 48.53C28.2082 48.53 27.6832 48.62 27.2632 48.83C26.9032 49.01 26.7232 49.175 26.3332 49.625L27.0682 50.3C27.3382 49.94 27.4882 49.805 27.7432 49.685C28.0432 49.535 28.4032 49.46 28.8832 49.46C30.2332 49.46 30.8182 49.955 30.8182 51.08V51.785H28.5982C27.0082 51.785 26.0482 52.58 26.0482 53.915C26.0482 55.325 26.9632 56.09 28.6732 56.09C29.2432 56.09 29.6332 56.045 29.9782 55.895C30.2782 55.775 30.4582 55.64 30.8182 55.295V56H31.8982ZM30.8182 53.39C30.8182 54.65 30.2632 55.16 28.8832 55.16C27.6382 55.16 27.0982 54.785 27.0982 53.9C27.0982 53.03 27.6532 52.595 28.7482 52.595H30.8182V53.39ZM39.2272 49.55V48.62H33.1972V49.55H35.7322V56H36.8122V49.55H39.2272ZM46.68 56V48.62H45.6L41.805 54.305V48.62H40.74V56H41.805L45.6 50.285V56H46.68ZM55.1122 53.96C55.1122 53.06 54.6172 52.475 53.8222 52.175C54.5722 51.905 54.9922 51.35 54.9922 50.555C54.9922 49.385 54.1222 48.62 52.8172 48.62H49.3972V56H52.9072C54.2872 56 55.1122 55.22 55.1122 53.96ZM53.9272 50.645C53.9272 51.35 53.4772 51.755 52.6222 51.755H50.4622V49.55H52.6222C53.4622 49.55 53.9272 49.94 53.9272 50.645ZM54.0472 53.855C54.0472 54.59 53.5522 55.07 52.7122 55.07H50.4622V52.64H52.7122C53.5522 52.64 54.0472 53.12 54.0472 53.855ZM65.3732 56V48.62H64.2932V56H65.3732ZM63.1082 53.78C63.1082 52.43 62.1782 51.545 60.7682 51.545H58.5482V48.62H57.4832V56H60.7682C62.1782 56 63.1082 55.115 63.1082 53.78ZM62.0282 53.78C62.0282 54.605 61.5482 55.07 60.6482 55.07H58.5482V52.49H60.6482C61.5482 52.49 62.0282 52.955 62.0282 53.78ZM77.2651 54.995L76.5301 54.29C76.1401 54.695 75.9601 54.845 75.6601 54.98C75.4201 55.085 75.1651 55.13 74.8501 55.13C73.3951 55.13 72.6451 54.17 72.6451 52.31C72.6451 50.45 73.4101 49.49 74.8651 49.49C75.1801 49.49 75.4501 49.55 75.6901 49.655C75.9751 49.775 76.1551 49.925 76.5301 50.315L77.2651 49.625C76.7701 49.115 76.5301 48.935 76.1251 48.755C75.7651 48.605 75.3601 48.53 74.8801 48.53C72.8101 48.53 71.5651 49.955 71.5651 52.31C71.5651 54.665 72.8101 56.09 74.8801 56.09C75.3601 56.09 75.7651 56.015 76.1251 55.865C76.5301 55.685 76.7701 55.505 77.2651 54.995ZM88.789 53.96C88.789 53.06 88.294 52.475 87.499 52.175C88.249 51.905 88.669 51.35 88.669 50.555C88.669 49.385 87.799 48.62 86.494 48.62H83.074V56H86.584C87.964 56 88.789 55.22 88.789 53.96ZM87.604 50.645C87.604 51.35 87.154 51.755 86.299 51.755H84.139V49.55H86.299C87.139 49.55 87.604 49.94 87.604 50.645ZM87.724 53.855C87.724 54.59 87.229 55.07 86.389 55.07H84.139V52.64H86.389C87.229 52.64 87.724 53.12 87.724 53.855ZM99.0499 56V48.62H97.9699V56H99.0499ZM96.7849 53.78C96.7849 52.43 95.8549 51.545 94.4449 51.545H92.2249V48.62H91.1599V56H94.4449C95.8549 56 96.7849 55.115 96.7849 53.78ZM95.7049 53.78C95.7049 54.605 95.2249 55.07 94.3249 55.07H92.2249V52.49H94.3249C95.2249 52.49 95.7049 52.955 95.7049 53.78ZM107.207 54.995L106.472 54.29C106.082 54.695 105.902 54.845 105.602 54.98C105.362 55.085 105.107 55.13 104.792 55.13C103.337 55.13 102.587 54.17 102.587 52.31C102.587 50.45 103.352 49.49 104.807 49.49C105.122 49.49 105.392 49.55 105.632 49.655C105.917 49.775 106.097 49.925 106.472 50.315L107.207 49.625C106.712 49.115 106.472 48.935 106.067 48.755C105.707 48.605 105.302 48.53 104.822 48.53C102.752 48.53 101.507 49.955 101.507 52.31C101.507 54.665 102.752 56.09 104.822 56.09C105.302 56.09 105.707 56.015 106.067 55.865C106.472 55.685 106.712 55.505 107.207 54.995ZM114.905 52.265C114.905 50.885 114.635 50 114.005 49.37C113.465 48.83 112.715 48.53 111.89 48.53C111.05 48.53 110.315 48.83 109.775 49.37C109.145 50.015 108.875 50.885 108.875 52.31C108.875 53.735 109.145 54.605 109.775 55.25C110.315 55.79 111.05 56.09 111.89 56.09C112.73 56.09 113.465 55.79 114.005 55.25C114.65 54.59 114.905 53.735 114.905 52.265ZM113.825 52.355C113.825 53.525 113.66 54.155 113.24 54.59C112.91 54.935 112.415 55.13 111.89 55.13C111.365 55.13 110.885 54.935 110.555 54.59C110.12 54.14 109.955 53.51 109.955 52.31C109.955 51.11 110.12 50.465 110.555 50.03C110.885 49.685 111.38 49.49 111.89 49.49C112.415 49.49 112.91 49.685 113.24 50.03C113.675 50.465 113.825 51.095 113.825 52.355ZM118.359 56V52.19L121.854 56H123.249L119.634 52.1L122.949 48.62H121.614L118.359 52.16V48.62H117.279V56H118.359ZM130.037 52.265C130.037 50.885 129.767 50 129.137 49.37C128.597 48.83 127.847 48.53 127.022 48.53C126.182 48.53 125.447 48.83 124.907 49.37C124.277 50.015 124.007 50.885 124.007 52.31C124.007 53.735 124.277 54.605 124.907 55.25C125.447 55.79 126.182 56.09 127.022 56.09C127.862 56.09 128.597 55.79 129.137 55.25C129.782 54.59 130.037 53.735 130.037 52.265ZM128.957 52.355C128.957 53.525 128.792 54.155 128.372 54.59C128.042 54.935 127.547 55.13 127.022 55.13C126.497 55.13 126.017 54.935 125.687 54.59C125.252 54.14 125.087 53.51 125.087 52.31C125.087 51.11 125.252 50.465 125.687 50.03C126.017 49.685 126.512 49.49 127.022 49.49C127.547 49.49 128.042 49.685 128.372 50.03C128.807 50.465 128.957 51.095 128.957 52.355ZM137.526 45.44H136.566C136.506 46.19 136.071 46.565 135.336 46.565C134.601 46.565 134.166 46.19 134.106 45.44H133.146C133.236 46.79 134.091 47.33 135.336 47.33C136.581 47.33 137.436 46.79 137.526 45.44ZM138.306 56V48.62H137.226L133.431 54.305V48.62H132.366V56H133.431L137.226 50.285V56H138.306ZM145.884 56V52.19L149.379 56H150.774L147.159 52.1L150.474 48.62H149.139L145.884 52.16V48.62H144.804V56H145.884ZM157.561 52.265C157.561 50.885 157.291 50 156.661 49.37C156.121 48.83 155.371 48.53 154.546 48.53C153.706 48.53 152.971 48.83 152.431 49.37C151.801 50.015 151.531 50.885 151.531 52.31C151.531 53.735 151.801 54.605 152.431 55.25C152.971 55.79 153.706 56.09 154.546 56.09C155.386 56.09 156.121 55.79 156.661 55.25C157.306 54.59 157.561 53.735 157.561 52.265ZM156.481 52.355C156.481 53.525 156.316 54.155 155.896 54.59C155.566 54.935 155.071 55.13 154.546 55.13C154.021 55.13 153.541 54.935 153.211 54.59C152.776 54.14 152.611 53.51 152.611 52.31C152.611 51.11 152.776 50.465 153.211 50.03C153.541 49.685 154.036 49.49 154.546 49.49C155.071 49.49 155.566 49.685 155.896 50.03C156.331 50.465 156.481 51.095 156.481 52.355ZM165.605 56V48.62H164.525V51.725H160.955V48.62H159.89V56H160.955V52.655H164.525V56H165.605ZM174.028 53.96C174.028 53.06 173.533 52.475 172.738 52.175C173.488 51.905 173.908 51.35 173.908 50.555C173.908 49.385 173.038 48.62 171.733 48.62H168.313V56H171.823C173.203 56 174.028 55.22 174.028 53.96ZM172.843 50.645C172.843 51.35 172.393 51.755 171.538 51.755H169.378V49.55H171.538C172.378 49.55 172.843 49.94 172.843 50.645ZM172.963 53.855C172.963 54.59 172.468 55.07 171.628 55.07H169.378V52.64H171.628C172.468 52.64 172.963 53.12 172.963 53.855ZM182.039 52.595V52.1C182.039 49.895 180.884 48.53 179.009 48.53C177.134 48.53 175.979 49.94 175.979 52.265C175.979 54.77 177.104 56.09 179.234 56.09C179.774 56.09 180.254 56 180.659 55.835C181.109 55.655 181.364 55.475 181.904 54.95L181.169 54.305C180.764 54.695 180.569 54.83 180.239 54.965C179.969 55.07 179.639 55.145 179.294 55.145C178.289 55.145 177.629 54.755 177.284 53.93C177.134 53.57 177.089 53.27 177.059 52.595H182.039ZM180.959 51.785H177.059C177.089 51.125 177.134 50.885 177.284 50.555C177.584 49.865 178.229 49.445 179.009 49.445C179.879 49.445 180.569 49.955 180.824 50.81C180.914 51.08 180.929 51.215 180.959 51.785ZM190.203 52.325C190.203 49.715 189.348 48.53 187.443 48.53C186.978 48.53 186.588 48.605 186.258 48.77C185.943 48.935 185.763 49.085 185.418 49.49V48.62H184.338V59.3H185.418V55.13C185.778 55.55 185.958 55.7 186.273 55.85C186.618 56.015 187.008 56.09 187.458 56.09C189.333 56.09 190.203 54.89 190.203 52.325ZM189.123 52.325C189.123 54.29 188.568 55.13 187.278 55.13C185.973 55.13 185.418 54.29 185.418 52.31C185.418 50.345 185.973 49.49 187.263 49.49C188.583 49.49 189.123 50.315 189.123 52.325ZM197.807 54.995L197.072 54.29C196.682 54.695 196.502 54.845 196.202 54.98C195.962 55.085 195.707 55.13 195.392 55.13C193.937 55.13 193.187 54.17 193.187 52.31C193.187 50.45 193.952 49.49 195.407 49.49C195.722 49.49 195.992 49.55 196.232 49.655C196.517 49.775 196.697 49.925 197.072 50.315L197.807 49.625C197.312 49.115 197.072 48.935 196.667 48.755C196.307 48.605 195.902 48.53 195.422 48.53C193.352 48.53 192.107 49.955 192.107 52.31C192.107 54.665 193.352 56.09 195.422 56.09C195.902 56.09 196.307 56.015 196.667 55.865C197.072 55.685 197.312 55.505 197.807 54.995ZM205.821 56V48.62H204.741L200.946 54.305V48.62H199.881V56H200.946L204.741 50.285V56H205.821ZM214.178 52.595V52.1C214.178 49.895 213.023 48.53 211.148 48.53C209.273 48.53 208.118 49.94 208.118 52.265C208.118 54.77 209.243 56.09 211.373 56.09C211.913 56.09 212.393 56 212.798 55.835C213.248 55.655 213.503 55.475 214.043 54.95L213.308 54.305C212.903 54.695 212.708 54.83 212.378 54.965C212.108 55.07 211.778 55.145 211.433 55.145C210.428 55.145 209.768 54.755 209.423 53.93C209.273 53.57 209.228 53.27 209.198 52.595H214.178ZM213.098 51.785H209.198C209.228 51.125 209.273 50.885 209.423 50.555C209.723 49.865 210.368 49.445 211.148 49.445C212.018 49.445 212.708 49.955 212.963 50.81C213.053 51.08 213.068 51.215 213.098 51.785ZM221.652 45.44H220.692C220.632 46.19 220.197 46.565 219.462 46.565C218.727 46.565 218.292 46.19 218.232 45.44H217.272C217.362 46.79 218.217 47.33 219.462 47.33C220.707 47.33 221.562 46.79 221.652 45.44ZM222.432 56V48.62H221.352L217.557 54.305V48.62H216.492V56H217.557L221.352 50.285V56H222.432Z" fill="#C3B6F0"/>
<rect y="7" width="7" height="26" fill="white"/>
</svg>
