<svg width="495" height="495" viewBox="0 0 495 495" fill="none" xmlns="http://www.w3.org/2000/svg">
<mask id="mask0" mask-type="alpha" maskUnits="userSpaceOnUse" x="0" y="0" width="495" height="495">
<circle cx="247.165" cy="247.165" r="188.5" transform="rotate(112.998 247.165 247.165)" fill="#C4C4C4"/>
</mask>
<g mask="url(#mask0)">
<path fill-rule="evenodd" clip-rule="evenodd" d="M248.536 67.6648C248.337 67.6648 248.137 67.6651 247.938 67.6658L247.946 70.051C248.143 70.0504 248.339 70.05 248.536 70.05C248.732 70.05 248.929 70.0504 249.126 70.051L249.133 67.6658C248.934 67.6651 248.735 67.6648 248.536 67.6648ZM240.805 67.8278C240.411 67.8444 240.017 67.8623 239.623 67.8815L239.739 70.264C240.128 70.245 240.516 70.2273 240.906 70.2109L240.805 67.8278ZM257.449 67.8815C257.055 67.8623 256.661 67.8444 256.267 67.8278L256.166 70.2109C256.555 70.2273 256.944 70.245 257.333 70.264L257.449 67.8815ZM232.501 68.369C232.107 68.4037 231.714 68.4397 231.321 68.477L231.546 70.8516C231.934 70.8148 232.322 70.7793 232.711 70.745L232.501 68.369ZM265.751 68.477C265.358 68.4398 264.964 68.4037 264.571 68.369L264.361 70.745C264.75 70.7793 265.138 70.8148 265.526 70.8516L265.751 68.477ZM224.232 69.291C223.839 69.3439 223.448 69.3981 223.056 69.4535L223.391 71.8152C223.777 71.7605 224.164 71.707 224.551 71.6548L224.232 69.291ZM274.015 69.4535C273.624 69.3981 273.232 69.3439 272.84 69.291L272.521 71.6548C272.908 71.707 273.295 71.7605 273.681 71.8152L274.015 69.4535ZM216.014 70.5939C215.625 70.665 215.235 70.7373 214.847 70.8108L215.29 73.1545C215.674 73.0819 216.058 73.0105 216.442 72.9404L216.014 70.5939ZM282.225 70.8108C281.836 70.7373 281.447 70.665 281.058 70.5939L280.63 72.9404C281.014 73.0106 281.398 73.0819 281.781 73.1545L282.225 70.8108ZM207.866 72.2764C207.48 72.3655 207.095 72.4559 206.709 72.5475L207.261 74.868C207.641 74.7776 208.022 74.6885 208.403 74.6005L207.866 72.2764ZM290.362 72.5475C289.977 72.4559 289.592 72.3655 289.205 72.2764L288.669 74.6005C289.05 74.6885 289.43 74.7776 289.81 74.868L290.362 72.5475ZM199.806 74.3358C199.424 74.4428 199.043 74.5511 198.662 74.6606L199.321 76.9529C199.697 76.8449 200.073 76.738 200.45 76.6324L199.806 74.3358ZM298.41 74.6606C298.029 74.5511 297.648 74.4428 297.266 74.3358L296.622 76.6325C296.999 76.7381 297.375 76.8449 297.75 76.9529L298.41 74.6606ZM191.849 76.7681C191.473 76.8928 191.097 77.0187 190.722 77.1459L191.487 79.405C191.857 79.2796 192.228 79.1553 192.6 79.0323L191.849 76.7681ZM306.35 77.1459C305.975 77.0188 305.599 76.8928 305.222 76.7681L304.472 79.0323C304.843 79.1554 305.214 79.2796 305.585 79.405L306.35 77.1459ZM184.015 79.5681C183.645 79.7102 183.275 79.8535 182.906 79.998L183.776 82.2191C184.14 82.0765 184.505 81.9351 184.87 81.7949L184.015 79.5681ZM314.166 79.9981C313.797 79.8536 313.427 79.7102 313.057 79.5681L312.202 81.7949C312.567 81.9352 312.932 82.0766 313.296 82.2191L314.166 79.9981ZM176.319 82.7295C175.956 82.8887 175.594 83.049 175.232 83.2106L176.203 85.3888C176.561 85.2294 176.918 85.0712 177.277 84.9141L176.319 82.7295ZM321.84 83.2106C321.478 83.0491 321.116 82.8887 320.752 82.7295L319.795 84.9142C320.153 85.0712 320.511 85.2295 320.868 85.3888L321.84 83.2106ZM168.779 86.2449C168.423 86.4208 168.069 86.5978 167.714 86.776L168.786 88.9068C169.136 88.731 169.486 88.5564 169.837 88.3828L168.779 86.2449ZM329.357 86.776C329.003 86.5979 328.648 86.4208 328.293 86.245L327.235 88.3828C327.586 88.5564 327.936 88.731 328.285 88.9068L329.357 86.776ZM161.409 90.1062C161.063 90.2984 160.716 90.4916 160.371 90.686L161.54 92.7649C161.881 92.5731 162.223 92.3824 162.565 92.1928L161.409 90.1062ZM336.701 90.686C336.355 90.4917 336.009 90.2984 335.662 90.1063L334.507 92.1929C334.849 92.3824 335.191 92.5731 335.531 92.7649L336.701 90.686ZM154.227 94.3044C153.889 94.5124 153.552 94.7214 153.216 94.9316L154.48 96.9542C154.812 96.7469 155.144 96.5406 155.477 96.3354L154.227 94.3044ZM343.856 94.9316C343.52 94.7215 343.183 94.5124 342.845 94.3045L341.594 96.3354C341.927 96.5406 342.26 96.7469 342.592 96.9542L343.856 94.9316ZM147.245 98.8299C146.917 99.0532 146.591 99.2775 146.265 99.5029L147.621 101.465C147.942 101.243 148.265 101.021 148.588 100.801L147.245 98.8299ZM350.807 99.5029C350.481 99.2775 350.154 99.0532 349.827 98.8299L348.483 100.801C348.807 101.021 349.129 101.243 349.451 101.465L350.807 99.5029ZM140.48 103.672C140.163 103.91 139.847 104.15 139.531 104.39L140.976 106.287C141.287 106.05 141.599 105.814 141.912 105.579L140.48 103.672ZM357.54 104.39C357.225 104.15 356.909 103.91 356.592 103.672L355.159 105.579C355.472 105.814 355.784 106.05 356.095 106.287L357.54 104.39ZM133.944 108.821C133.639 109.073 133.334 109.327 133.03 109.581L134.561 111.41C134.861 111.159 135.161 110.909 135.463 110.66L133.944 108.821ZM364.042 109.581C363.738 109.327 363.433 109.073 363.127 108.821L361.609 110.66C361.91 110.909 362.211 111.159 362.511 111.41L364.042 109.581ZM370.298 115.066C370.006 114.798 369.713 114.531 369.42 114.265L367.818 116.032C368.108 116.295 368.397 116.558 368.685 116.823L370.298 115.066ZM127.652 114.265C127.358 114.531 127.066 114.798 126.774 115.066L128.387 116.823C128.675 116.558 128.964 116.295 129.254 116.032L127.652 114.265ZM376.295 120.832C376.016 120.551 375.736 120.27 375.455 119.991L373.774 121.683C374.051 121.959 374.328 122.235 374.603 122.513L376.295 120.832ZM121.617 119.991C121.336 120.27 121.055 120.551 120.776 120.832L122.468 122.513C122.744 122.235 123.02 121.959 123.298 121.683L121.617 119.991ZM382.022 126.867C381.756 126.574 381.489 126.281 381.221 125.989L379.464 127.602C379.729 127.89 379.992 128.179 380.255 128.469L382.022 126.867ZM115.851 125.989C115.583 126.281 115.316 126.574 115.049 126.867L116.817 128.469C117.08 128.179 117.343 127.89 117.607 127.602L115.851 125.989ZM387.466 133.159C387.213 132.854 386.96 132.549 386.706 132.245L384.877 133.776C385.128 134.076 385.378 134.376 385.627 134.678L387.466 133.159ZM110.366 132.245C110.112 132.549 109.858 132.854 109.606 133.159L111.445 134.678C111.694 134.376 111.944 134.076 112.195 133.776L110.366 132.245ZM105.175 138.746C104.934 139.062 104.695 139.378 104.457 139.695L106.364 141.127C106.599 140.815 106.835 140.503 107.072 140.191L105.175 138.746ZM392.614 139.695C392.376 139.378 392.137 139.062 391.897 138.746L389.999 140.191C390.236 140.503 390.472 140.815 390.707 141.127L392.614 139.695ZM100.288 145.48C100.062 145.806 99.8381 146.133 99.6148 146.46L101.586 147.803C101.806 147.48 102.028 147.158 102.25 146.836L100.288 145.48ZM397.457 146.46C397.234 146.133 397.009 145.806 396.784 145.48L394.822 146.836C395.044 147.158 395.265 147.48 395.486 147.803L397.457 146.46ZM95.7165 152.431C95.5064 152.767 95.2973 153.104 95.0894 153.442L97.1203 154.692C97.3255 154.359 97.5318 154.027 97.7391 153.695L95.7165 152.431ZM401.982 153.442C401.774 153.104 401.565 152.767 401.355 152.431L399.333 153.695C399.54 154.027 399.746 154.359 399.951 154.692L401.982 153.442ZM91.4709 159.586C91.2766 159.931 91.0833 160.278 90.8912 160.624L92.9778 161.78C93.1674 161.438 93.3581 161.096 93.5498 160.755L91.4709 159.586ZM406.18 160.625C405.988 160.278 405.795 159.931 405.601 159.586L403.522 160.755C403.714 161.096 403.904 161.438 404.094 161.78L406.18 160.625ZM87.5609 166.929C87.3828 167.284 87.2057 167.638 87.0299 167.994L89.1677 169.052C89.3413 168.701 89.516 168.351 89.6917 168.001L87.5609 166.929ZM410.042 167.994C409.866 167.638 409.689 167.284 409.511 166.93L407.38 168.001C407.556 168.351 407.73 168.701 407.904 169.052L410.042 167.994ZM83.9955 174.447C83.834 174.809 83.6736 175.171 83.5144 175.534L85.6991 176.492C85.8562 176.133 86.0144 175.776 86.1737 175.418L83.9955 174.447ZM413.276 174.897C413.21 174.747 413.143 174.597 413.076 174.447L410.898 175.419C411.057 175.776 411.216 176.133 411.373 176.492L413.557 175.535C413.464 175.322 413.37 175.109 413.276 174.897ZM80.783 182.121C80.6385 182.49 80.4952 182.86 80.353 183.23L82.5798 184.085C82.7201 183.72 82.8615 183.355 83.004 182.991L80.783 182.121ZM416.719 183.23C416.577 182.86 416.433 182.49 416.289 182.121L414.068 182.991C414.21 183.355 414.352 183.72 414.492 184.085L416.719 183.23ZM77.9308 189.937C77.8037 190.312 77.6777 190.688 77.553 191.064L79.8172 191.815C79.9403 191.443 80.0645 191.072 80.1899 190.702L77.9308 189.937ZM419.327 190.489C419.265 190.305 419.203 190.121 419.141 189.937L416.882 190.702C417.007 191.073 417.131 191.443 417.254 191.815L419.519 191.064C419.455 190.873 419.391 190.681 419.327 190.489ZM75.4455 197.877C75.336 198.258 75.2278 198.639 75.1207 199.021L77.4174 199.665C77.523 199.288 77.6298 198.912 77.7378 198.536L75.4455 197.877ZM421.951 199.021C421.844 198.639 421.736 198.258 421.626 197.877L419.334 198.536C419.442 198.912 419.549 199.288 419.654 199.665L421.951 199.021ZM73.3324 205.924C73.2408 206.31 73.1504 206.695 73.0613 207.081L75.3854 207.618C75.4734 207.237 75.5625 206.856 75.6529 206.476L73.3324 205.924ZM423.896 206.588C423.844 206.366 423.792 206.145 423.739 205.925L421.419 206.476C421.509 206.856 421.598 207.237 421.686 207.618L424.01 207.081C423.972 206.917 423.934 206.752 423.896 206.588ZM71.5958 214.062C71.5222 214.45 71.4499 214.84 71.3788 215.229L73.7254 215.657C73.7955 215.273 73.8668 214.889 73.9394 214.505L71.5958 214.062ZM425.693 215.229C425.622 214.84 425.549 214.451 425.476 214.062L423.132 214.505C423.205 214.889 423.276 215.273 423.346 215.657L425.693 215.229ZM70.2384 222.271C70.183 222.663 70.1288 223.054 70.0759 223.447L72.4398 223.766C72.492 223.379 72.5454 222.992 72.6001 222.606L70.2384 222.271ZM426.996 223.447C426.943 223.055 426.889 222.663 426.833 222.271L424.472 222.606C424.526 222.992 424.58 223.379 424.632 223.766L426.996 223.447ZM69.2619 230.536C69.2247 230.929 69.1887 231.322 69.1539 231.716L71.5299 231.926C71.5642 231.537 71.5998 231.149 71.6365 230.761L69.2619 230.536ZM427.918 231.716C427.901 231.522 427.883 231.329 427.866 231.135C427.847 230.936 427.829 230.736 427.81 230.536L425.435 230.761C425.472 231.149 425.507 231.537 425.542 231.926L427.918 231.716ZM68.6665 238.838C68.6473 239.232 68.6293 239.626 68.6127 240.02L70.9958 240.121C71.0122 239.732 71.0299 239.343 71.0489 238.954L68.6665 238.838ZM428.459 240.02C428.454 239.892 428.448 239.764 428.442 239.636C428.431 239.37 428.418 239.104 428.405 238.838L426.023 238.954C426.042 239.343 426.059 239.732 426.076 240.121L428.459 240.02ZM68.4507 247.153C68.45 247.352 68.4497 247.552 68.4497 247.751C68.4497 247.95 68.45 248.149 68.4507 248.348L70.8359 248.341C70.8353 248.144 70.835 247.948 70.835 247.751C70.835 247.554 70.8353 247.358 70.8359 247.161L68.4507 247.153ZM428.622 247.751L428.622 247.514L428.622 247.357L428.621 247.153L426.236 247.161C426.236 247.282 426.236 247.403 426.237 247.524C426.237 247.6 426.237 247.675 426.237 247.751C426.237 247.948 426.236 248.144 426.236 248.341L428.621 248.348C428.621 248.224 428.622 248.099 428.622 247.975C428.622 247.9 428.622 247.826 428.622 247.751ZM68.6127 255.482C68.6293 255.876 68.6473 256.27 68.6664 256.664L71.0489 256.548C71.0299 256.159 71.0122 255.77 70.9958 255.381L68.6127 255.482ZM428.405 256.664C428.414 256.473 428.423 256.282 428.432 256.091C428.441 255.888 428.45 255.685 428.459 255.482L426.076 255.381C426.059 255.77 426.042 256.159 426.023 256.548L428.405 256.664ZM69.1539 263.786C69.1886 264.179 69.2247 264.573 69.2619 264.966L71.6365 264.741C71.5997 264.353 71.5642 263.965 71.5299 263.576L69.1539 263.786ZM427.81 264.966C427.847 264.573 427.883 264.18 427.918 263.786L425.542 263.576C425.507 263.965 425.472 264.353 425.435 264.741L427.81 264.966ZM70.0759 272.055C70.1288 272.447 70.183 272.839 70.2384 273.23L72.6001 272.896C72.5454 272.51 72.4919 272.123 72.4397 271.736L70.0759 272.055ZM426.858 273.056C426.87 272.971 426.882 272.887 426.893 272.802C426.928 272.553 426.962 272.304 426.996 272.055L424.632 271.736C424.58 272.123 424.526 272.51 424.472 272.896L426.833 273.23L426.858 273.056ZM71.3788 280.273C71.4499 280.662 71.5222 281.051 71.5957 281.44L73.9394 280.996C73.8668 280.613 73.7955 280.229 73.7253 279.845L71.3788 280.273ZM425.476 281.44C425.549 281.051 425.622 280.662 425.693 280.273L423.346 279.845C423.276 280.229 423.205 280.613 423.132 280.997L425.476 281.44ZM73.0613 288.42C73.1504 288.807 73.2408 289.192 73.3324 289.577L75.6529 289.025C75.5625 288.645 75.4734 288.265 75.3854 287.884L73.0613 288.42ZM423.739 289.577C423.831 289.192 423.921 288.807 424.01 288.421L421.686 287.884C421.649 288.047 421.611 288.209 421.573 288.372C421.522 288.59 421.47 288.808 421.419 289.025L423.739 289.577ZM75.1207 296.481C75.2277 296.863 75.336 297.244 75.4455 297.625L77.7378 296.965C77.6298 296.59 77.523 296.214 77.4173 295.837L75.1207 296.481ZM421.626 297.625C421.736 297.244 421.844 296.863 421.951 296.481L419.654 295.837C419.549 296.214 419.442 296.59 419.334 296.965L421.626 297.625ZM77.553 304.437C77.6777 304.814 77.8037 305.19 77.9308 305.565L80.1899 304.8C80.0645 304.429 79.9402 304.058 79.8172 303.687L77.553 304.437ZM419.141 305.565C419.188 305.427 419.234 305.289 419.281 305.151C419.36 304.913 419.44 304.675 419.519 304.437L417.254 303.687C417.2 303.85 417.146 304.014 417.091 304.177C417.022 304.385 416.952 304.592 416.882 304.8L419.141 305.565ZM80.353 312.272C80.4951 312.642 80.6384 313.012 80.7829 313.381L83.004 312.511C82.8615 312.147 82.72 311.782 82.5798 311.417L80.353 312.272ZM416.289 313.381C416.343 313.241 416.397 313.102 416.452 312.963C416.541 312.733 416.63 312.502 416.719 312.272L414.492 311.417C414.401 311.653 414.31 311.889 414.218 312.125C414.168 312.253 414.118 312.382 414.068 312.511L416.289 313.381ZM83.5144 319.967C83.6736 320.331 83.8339 320.693 83.9955 321.055L86.1737 320.083C86.0144 319.726 85.8561 319.368 85.6991 319.01L83.5144 319.967ZM413.076 321.055C413.238 320.693 413.398 320.331 413.557 319.967L411.373 319.01C411.215 319.368 411.057 319.726 410.898 320.083L413.076 321.055ZM87.0298 327.508C87.2057 327.863 87.3827 328.218 87.5609 328.572L89.6917 327.5C89.5159 327.151 89.3413 326.801 89.1677 326.45L87.0298 327.508ZM409.511 328.572C409.587 328.42 409.664 328.268 409.74 328.115C409.841 327.913 409.942 327.711 410.042 327.508L407.904 326.45C407.816 326.628 407.727 326.806 407.638 326.984C407.553 327.157 407.466 327.329 407.38 327.5L409.511 328.572ZM90.8912 334.877C91.0833 335.224 91.2766 335.57 91.4709 335.916L93.5498 334.747C93.358 334.406 93.1673 334.064 92.9777 333.722L90.8912 334.877ZM405.601 335.916C405.795 335.57 405.988 335.224 406.18 334.877L404.094 333.722C404.023 333.849 403.953 333.976 403.882 334.103C403.762 334.318 403.642 334.532 403.522 334.747L405.601 335.916ZM95.0893 342.06C95.2973 342.398 95.5063 342.735 95.7165 343.071L97.7391 341.807C97.5318 341.475 97.3255 341.143 97.1203 340.809L95.0893 342.06ZM401.674 342.559C401.777 342.393 401.88 342.227 401.982 342.06L399.951 340.809C399.746 341.143 399.54 341.475 399.333 341.807L401.355 343.071C401.462 342.9 401.568 342.73 401.674 342.559ZM99.6148 349.042C99.8381 349.369 100.062 349.696 100.288 350.022L102.25 348.666C102.028 348.344 101.806 348.022 101.586 347.698L99.6148 349.042ZM396.784 350.022C396.885 349.876 396.986 349.729 397.087 349.582C397.184 349.441 397.28 349.301 397.375 349.161L397.457 349.042L395.486 347.698C395.265 348.022 395.044 348.344 394.822 348.666L396.784 350.022ZM104.457 355.807C104.695 356.124 104.934 356.44 105.175 356.756L107.072 355.31C106.835 354.999 106.599 354.687 106.364 354.374L104.457 355.807ZM391.897 356.756C392.137 356.44 392.376 356.124 392.614 355.807L390.707 354.374C390.472 354.687 390.236 354.999 389.999 355.31L391.897 356.756ZM109.606 362.343C109.858 362.648 110.112 362.953 110.366 363.257L112.195 361.726C111.944 361.426 111.694 361.125 111.445 360.824L109.606 362.343ZM387 362.905L387.099 362.785C387.222 362.638 387.344 362.49 387.466 362.343L385.627 360.824C385.378 361.125 385.128 361.426 384.877 361.726L386.706 363.257C386.804 363.14 386.902 363.022 387 362.905ZM381.221 369.513C381.489 369.221 381.756 368.928 382.022 368.635L380.255 367.033C379.992 367.323 379.729 367.612 379.464 367.9L381.221 369.513ZM115.049 368.635C115.316 368.928 115.583 369.221 115.851 369.513L117.608 367.9C117.343 367.612 117.08 367.323 116.817 367.033L115.049 368.635ZM120.776 374.67C121.055 374.951 121.336 375.231 121.617 375.511L123.298 373.818C123.02 373.543 122.744 373.266 122.468 372.989L120.776 374.67ZM375.455 375.511C375.736 375.231 376.016 374.951 376.295 374.67L374.603 372.989C374.328 373.266 374.051 373.543 373.774 373.818L375.455 375.511ZM126.774 380.436C127.066 380.704 127.358 380.971 127.652 381.237L129.254 379.47C128.964 379.207 128.675 378.944 128.387 378.679L126.774 380.436ZM369.42 381.237C369.713 380.971 370.006 380.704 370.298 380.436L368.685 378.679C368.397 378.944 368.108 379.207 367.818 379.47L369.42 381.237ZM133.03 385.921C133.334 386.175 133.639 386.429 133.944 386.681L135.463 384.842C135.161 384.593 134.861 384.343 134.561 384.092L133.03 385.921ZM363.623 386.27C363.763 386.154 363.902 386.037 364.042 385.921L362.511 384.092C362.211 384.343 361.91 384.593 361.609 384.842L363.127 386.681C363.293 386.544 363.458 386.407 363.623 386.27Z" fill="#9499C3"/>
<rect x="68.4497" y="246.64" width="11.9262" height="2.38525" fill="#9499C3"/>
<rect x="416.696" y="246.64" width="11.9262" height="2.38525" fill="#9499C3"/>
<rect width="11.9262" height="2.38525" transform="matrix(-0.819152 -0.573576 -0.573576 0.819152 402.037 342.044)" fill="#9499C3"/>
</g>
<mask id="mask1" mask-type="alpha" maskUnits="userSpaceOnUse" x="81" y="224" width="169" height="186">
<path d="M131.687 396.408C114.103 382.826 98.9965 366.31 87.0329 347.588L249.665 243.666L131.687 396.408Z" fill="#C4C4C4"/>
</mask>
<g mask="url(#mask1)">
<path fill-rule="evenodd" clip-rule="evenodd" d="M79.9033 263.337C84.2429 309.565 107.327 350.498 141.636 378.609L134.207 387.937C97.1698 357.652 72.3049 313.384 67.9268 263.337H79.9033Z" fill="#FA3737"/>
<rect x="93.7871" y="342.117" width="12.6951" height="2.38525" transform="rotate(-35 93.7871 342.117)" fill="#4B30A6"/>
<rect x="75.6054" y="263.337" width="11.9262" height="2.38525" fill="#FA3737"/>
</g>
</svg>
