<svg width="122" height="122" viewBox="0 0 122 122" fill="none" xmlns="http://www.w3.org/2000/svg">
<path d="M2.45856 12.1299L34.9881 21.7128C35.9977 22.0087 36.9357 22.5103 37.7425 23.1849L47.6334 31.425L55.9582 22.4945L42.2883 11.3873C41.944 11.1072 41.5467 10.8979 41.1214 10.7732L5.91093 0.404879C5.05854 0.153629 4.14101 0.251337 3.36027 0.676602C2.57953 1.10187 1.9998 1.81933 1.74855 2.67265L0.193583 7.97218C-0.32753 9.74489 0.685848 11.606 2.45856 12.1299Z" fill="white"/>
<path d="M51.6674 34.7833C52.0536 35.1053 52.3169 35.5511 52.4118 36.0443L67.5474 114.713C68.0573 117.368 69.7491 119.645 72.1443 120.899C74.5387 122.153 77.3741 122.247 79.8466 121.156L102.479 111.156C103.017 110.919 103.629 110.909 104.174 111.129C104.719 111.35 105.153 111.781 105.375 112.326C105.667 113.04 106.231 113.609 106.942 113.907C107.654 114.206 108.454 114.208 109.168 113.916L120.195 109.392C121.68 108.784 122.391 107.087 121.782 105.603L101.198 55.3747C100.886 54.6145 101.03 53.7435 101.569 53.1228L103.933 50.3916C105.141 48.993 104.989 46.8806 103.593 45.669L80.6245 25.7681C79.9508 25.1874 79.0742 24.898 78.1874 24.9641C77.3006 25.0302 76.4761 25.4452 75.8954 26.1189L70.782 32.0345C70.0041 32.9371 68.6454 33.0479 67.7326 32.2829L59.3212 25.274L50.9769 34.2213L51.6674 34.7833ZM79.546 114.166C78.1381 114.786 76.5217 114.715 75.1733 113.975C73.8249 113.234 72.8981 111.908 72.6654 110.387L67.5688 76.7152C67.1789 74.1618 67.7521 71.5543 69.1786 69.401L74.8569 73.8882C77.0828 75.6246 78.7439 77.9836 79.6288 80.6654L89.4304 109.801L79.546 114.166ZM76.0611 64.845L79.3282 64.2588C84.4296 63.3729 89.4174 66.3283 91.0896 71.2287L101.544 102.29C101.905 103.358 101.391 104.524 100.36 104.979L93.4439 108.035L83.7651 79.2957C82.6131 75.8005 80.4477 72.7278 77.5444 70.4665L72.2951 66.3079C73.448 65.5802 74.7313 65.0832 76.0741 64.845H76.0611ZM64.189 49.5764L67.2747 62.6452C67.5474 63.814 66.8215 64.9837 65.6528 65.2582C65.4881 65.2982 65.3206 65.3177 65.1512 65.3168C64.1415 65.3168 63.264 64.6226 63.0323 63.6399L59.9456 50.5721C59.767 49.8137 60.0061 49.0181 60.5728 48.484C61.1396 47.9507 61.9482 47.759 62.6945 47.9833C63.4399 48.2076 64.0094 48.8124 64.189 49.5699V49.5764ZM58.0901 36.5319C59.2552 36.235 60.4407 36.9376 60.7385 38.1026L61.8282 42.3693C62.125 43.5352 61.4206 44.7208 60.2555 45.0176C60.0787 45.0641 59.8973 45.0865 59.7149 45.0856C58.721 45.0846 57.8528 44.4109 57.6072 43.4478L56.5221 39.1877C56.377 38.6265 56.4616 38.0319 56.7566 37.5331C57.0525 37.0353 57.5336 36.6752 58.0948 36.5319H58.0901Z" fill="white"/>
<path d="M10.8968 66.413C13.8141 66.5135 16.643 65.3987 18.7079 63.3338C20.7728 61.2698 21.8877 58.4409 21.7862 55.5227C21.7862 50.4828 14.7363 39.264 10.8968 34.8308C7.05921 39.2612 0.00651162 50.48 0.00651162 55.5227C-0.0949193 58.4409 1.02082 61.2698 3.0848 63.3338C5.14971 65.3987 7.9786 66.5135 10.8968 66.413Z" fill="white"/>
</svg>
