<svg width="495" height="495" viewBox="0 0 495 495" fill="none" xmlns="http://www.w3.org/2000/svg">
<mask id="mask0" mask-type="alpha" maskUnits="userSpaceOnUse" x="0" y="0" width="495" height="495">
<circle cx="247.5" cy="247.5" r="188.5" transform="rotate(112.998 247.5 247.5)" fill="#C4C4C4"/>
</mask>
<g mask="url(#mask0)">
<path fill-rule="evenodd" clip-rule="evenodd" d="M248.871 67.9998C248.672 67.9998 248.473 68.0001 248.273 68.0007L248.281 70.386C248.478 70.3853 248.674 70.385 248.871 70.385C249.068 70.385 249.264 70.3853 249.461 70.386L249.468 68.0007C249.269 68.0001 249.07 67.9998 248.871 67.9998ZM241.14 68.1627C240.746 68.1794 240.352 68.1973 239.958 68.2165L240.074 70.5989C240.463 70.58 240.852 70.5623 241.241 70.5458L241.14 68.1627ZM257.784 68.2165C257.39 68.1973 256.996 68.1794 256.602 68.1627L256.501 70.5458C256.89 70.5623 257.279 70.58 257.668 70.5989L257.784 68.2165ZM232.836 68.704C232.442 68.7387 232.049 68.7747 231.656 68.812L231.881 71.1866C232.269 71.1498 232.657 71.1143 233.046 71.08L232.836 68.704ZM266.086 68.812C265.693 68.7747 265.3 68.7387 264.906 68.704L264.696 71.08C265.085 71.1143 265.473 71.1498 265.861 71.1866L266.086 68.812ZM224.567 69.626C224.175 69.6789 223.783 69.733 223.392 69.7885L223.726 72.1501C224.112 72.0954 224.499 72.042 224.886 71.9898L224.567 69.626ZM274.35 69.7885C273.959 69.733 273.567 69.6789 273.175 69.626L272.856 71.9898C273.243 72.042 273.63 72.0955 274.016 72.1501L274.35 69.7885ZM216.349 70.9289C215.96 70.9999 215.571 71.0722 215.182 71.1458L215.625 73.4894C216.009 73.4169 216.393 73.3455 216.777 73.2754L216.349 70.9289ZM282.56 71.1458C282.171 71.0722 281.782 70.9999 281.393 70.9289L280.965 73.2754C281.349 73.3455 281.733 73.4169 282.117 73.4895L282.56 71.1458ZM208.201 72.6114C207.815 72.7005 207.43 72.7908 207.045 72.8825L207.597 75.203C207.977 75.1126 208.357 75.0234 208.738 74.9355L208.201 72.6114ZM290.697 72.8825C290.312 72.7909 289.927 72.7005 289.541 72.6114L289.004 74.9355C289.385 75.0234 289.765 75.1126 290.145 75.203L290.697 72.8825ZM200.141 74.6707C199.759 74.7778 199.378 74.886 198.997 74.9955L199.656 77.2878C200.032 77.1798 200.408 77.073 200.785 76.9674L200.141 74.6707ZM298.745 74.9955C298.364 74.8861 297.983 74.7778 297.601 74.6708L296.957 76.9674C297.334 77.073 297.71 77.1798 298.086 77.2879L298.745 74.9955ZM192.185 77.103C191.808 77.2278 191.432 77.3537 191.057 77.4808L191.822 79.74C192.193 79.6145 192.563 79.4903 192.935 79.3672L192.185 77.103ZM306.685 77.4809C306.31 77.3537 305.934 77.2278 305.557 77.1031L304.807 79.3673C305.179 79.4903 305.549 79.6146 305.92 79.74L306.685 77.4809ZM184.35 79.9031C183.98 80.0452 183.61 80.1885 183.241 80.333L184.111 82.5541C184.475 82.4115 184.84 82.2701 185.205 82.1299L184.35 79.9031ZM314.501 80.333C314.132 80.1885 313.762 80.0452 313.392 79.9031L312.537 82.1299C312.902 82.2701 313.267 82.4115 313.631 82.5541L314.501 80.333ZM176.655 83.0644C176.291 83.2236 175.929 83.384 175.567 83.5455L176.539 85.7238C176.896 85.5644 177.254 85.4062 177.612 85.2491L176.655 83.0644ZM322.175 83.5455C321.813 83.384 321.451 83.2237 321.087 83.0645L320.13 85.2491C320.488 85.4062 320.846 85.5644 321.203 85.7238L322.175 83.5455ZM169.114 86.5799C168.759 86.7558 168.404 86.9328 168.05 87.1109L169.122 89.2418C169.471 89.066 169.821 88.8913 170.172 88.7178L169.114 86.5799ZM329.692 87.111C329.338 86.9328 328.983 86.7558 328.628 86.5799L327.57 88.7178C327.921 88.8913 328.271 89.066 328.62 89.2418L329.692 87.111ZM161.745 90.4412C161.398 90.6333 161.051 90.8266 160.706 91.021L161.875 93.0999C162.216 92.9081 162.558 92.7174 162.9 92.5278L161.745 90.4412ZM337.036 91.021C336.691 90.8266 336.344 90.6334 335.997 90.4412L334.842 92.5278C335.184 92.7174 335.526 92.9081 335.867 93.0999L337.036 91.021ZM154.562 94.6394C154.224 94.8474 153.887 95.0564 153.551 95.2665L154.815 97.2892C155.147 97.0818 155.479 96.8755 155.813 96.6703L154.562 94.6394ZM344.191 95.2665C343.855 95.0564 343.518 94.8474 343.18 94.6394L341.929 96.6704C342.263 96.8756 342.595 97.0818 342.927 97.2892L344.191 95.2665ZM147.58 99.1648C147.253 99.3881 146.926 99.6125 146.6 99.8378L147.956 101.8C148.278 101.578 148.6 101.356 148.924 101.136L147.58 99.1648ZM351.142 99.8379C350.816 99.6125 350.489 99.3881 350.162 99.1649L348.818 101.136C349.142 101.356 349.464 101.578 349.786 101.8L351.142 99.8379ZM140.815 104.007C140.498 104.245 140.182 104.484 139.866 104.725L141.311 106.622C141.623 106.385 141.935 106.149 142.247 105.914L140.815 104.007ZM357.876 104.725C357.56 104.484 357.244 104.245 356.927 104.007L355.495 105.914C355.807 106.149 356.119 106.385 356.431 106.622L357.876 104.725ZM134.279 109.156C133.974 109.408 133.669 109.662 133.365 109.916L134.896 111.745C135.196 111.494 135.496 111.244 135.798 110.995L134.279 109.156ZM364.377 109.916C364.073 109.662 363.768 109.408 363.463 109.156L361.944 110.995C362.245 111.244 362.546 111.494 362.846 111.745L364.377 109.916ZM370.633 115.401C370.341 115.133 370.048 114.866 369.755 114.599L368.153 116.367C368.443 116.63 368.732 116.893 369.02 117.158L370.633 115.401ZM127.987 114.599C127.694 114.866 127.401 115.133 127.109 115.401L128.722 117.158C129.01 116.893 129.299 116.63 129.589 116.367L127.987 114.599ZM376.631 121.167C376.351 120.886 376.071 120.605 375.79 120.326L374.109 122.018C374.386 122.294 374.663 122.57 374.938 122.848L376.631 121.167ZM121.952 120.326C121.671 120.605 121.391 120.886 121.111 121.167L122.803 122.848C123.079 122.57 123.355 122.294 123.633 122.018L121.952 120.326ZM382.357 127.202C382.091 126.908 381.824 126.616 381.556 126.324L379.799 127.937C380.064 128.225 380.327 128.514 380.59 128.804L382.357 127.202ZM116.186 126.324C115.918 126.616 115.651 126.908 115.385 127.202L117.152 128.804C117.415 128.514 117.678 128.225 117.943 127.937L116.186 126.324ZM387.801 133.494C387.549 133.189 387.295 132.884 387.041 132.58L385.212 134.111C385.463 134.411 385.713 134.711 385.962 135.013L387.801 133.494ZM110.701 132.58C110.447 132.884 110.193 133.189 109.941 133.494L111.78 135.013C112.029 134.711 112.279 134.411 112.53 134.111L110.701 132.58ZM105.51 139.081C105.27 139.397 105.03 139.713 104.792 140.03L106.699 141.462C106.934 141.149 107.17 140.838 107.407 140.526L105.51 139.081ZM392.95 140.03C392.712 139.713 392.472 139.397 392.232 139.081L390.335 140.526C390.572 140.838 390.808 141.15 391.042 141.462L392.95 140.03ZM100.623 145.815C100.398 146.141 100.173 146.467 99.95 146.795L101.921 148.138C102.141 147.815 102.363 147.492 102.585 147.171L100.623 145.815ZM397.792 146.795C397.569 146.468 397.344 146.141 397.119 145.815L395.157 147.171C395.379 147.493 395.601 147.815 395.821 148.138L397.792 146.795ZM96.0517 152.766C95.8415 153.102 95.6325 153.439 95.4245 153.777L97.4555 155.027C97.6607 154.694 97.8669 154.362 98.0743 154.03L96.0517 152.766ZM402.317 153.777C402.109 153.439 401.9 153.102 401.69 152.766L399.668 154.03C399.875 154.362 400.081 154.694 400.287 155.027L402.317 153.777ZM91.8061 159.921C91.6117 160.266 91.4185 160.613 91.2263 160.959L93.3129 162.115C93.5025 161.773 93.6932 161.431 93.885 161.09L91.8061 159.921ZM406.516 160.959C406.324 160.613 406.13 160.266 405.936 159.921L403.857 161.09C404.049 161.431 404.239 161.773 404.429 162.115L406.516 160.959ZM87.8961 167.264C87.7179 167.619 87.5409 167.973 87.365 168.329L89.5029 169.387C89.6764 169.036 89.8511 168.686 90.0269 168.336L87.8961 167.264ZM410.377 168.329C410.201 167.973 410.024 167.619 409.846 167.264L407.715 168.336C407.891 168.686 408.066 169.036 408.239 169.387L410.377 168.329ZM84.3306 174.782C84.1691 175.144 84.0088 175.506 83.8496 175.869L86.0342 176.827C86.1913 176.468 86.3495 176.111 86.5089 175.753L84.3306 174.782ZM413.612 175.232C413.545 175.082 413.478 174.932 413.411 174.782L411.233 175.753C411.392 176.111 411.551 176.468 411.708 176.827L413.892 175.869C413.799 175.657 413.706 175.444 413.612 175.232ZM81.1181 182.456C80.9736 182.825 80.8303 183.195 80.6882 183.565L82.915 184.42C83.0552 184.055 83.1966 183.69 83.3392 183.326L81.1181 182.456ZM417.054 183.565C416.912 183.195 416.768 182.825 416.624 182.456L414.403 183.326C414.545 183.69 414.687 184.055 414.827 184.42L417.054 183.565ZM78.266 190.272C78.1388 190.647 78.0129 191.023 77.8882 191.399L80.1524 192.15C80.2754 191.778 80.3997 191.407 80.5251 191.037L78.266 190.272ZM419.662 190.824C419.6 190.64 419.538 190.456 419.476 190.272L417.217 191.037C417.342 191.408 417.467 191.778 417.59 192.15L419.854 191.399C419.79 191.208 419.726 191.016 419.662 190.824ZM75.7807 198.212C75.6712 198.593 75.5629 198.974 75.4559 199.356L77.7525 200C77.8581 199.623 77.9649 199.247 78.073 198.871L75.7807 198.212ZM422.286 199.356C422.179 198.974 422.071 198.593 421.961 198.212L419.669 198.871C419.777 199.247 419.884 199.623 419.989 200L422.286 199.356ZM73.6676 206.259C73.576 206.645 73.4856 207.03 73.3965 207.416L75.7206 207.953C75.8085 207.572 75.8977 207.191 75.9881 206.811L73.6676 206.259ZM424.231 206.923C424.179 206.701 424.127 206.48 424.074 206.259L421.754 206.811C421.844 207.191 421.933 207.572 422.021 207.953L424.346 207.416C424.307 207.252 424.269 207.087 424.231 206.923ZM71.9309 214.397C71.8574 214.785 71.785 215.175 71.714 215.564L74.0605 215.992C74.1306 215.608 74.202 215.224 74.2746 214.84L71.9309 214.397ZM426.028 215.564C425.957 215.175 425.885 214.785 425.811 214.397L423.467 214.84C423.54 215.224 423.611 215.608 423.681 215.992L426.028 215.564ZM70.5736 222.606C70.5182 222.998 70.464 223.389 70.4111 223.782L72.7749 224.1C72.8271 223.714 72.8806 223.327 72.9353 222.941L70.5736 222.606ZM427.331 223.782C427.278 223.39 427.224 222.998 427.168 222.606L424.807 222.941C424.861 223.327 424.915 223.714 424.967 224.101L427.331 223.782ZM69.5971 230.871C69.5598 231.264 69.5238 231.657 69.4891 232.051L71.8651 232.261C71.8994 231.872 71.9349 231.484 71.9717 231.096L69.5971 230.871ZM428.253 232.051C428.236 231.857 428.218 231.664 428.201 231.47C428.182 231.27 428.164 231.071 428.145 230.871L425.77 231.096C425.807 231.484 425.843 231.872 425.877 232.261L428.253 232.051ZM69.0016 239.173C68.9824 239.567 68.9645 239.961 68.9478 240.355L71.331 240.456C71.3474 240.066 71.3651 239.678 71.384 239.289L69.0016 239.173ZM428.794 240.355C428.789 240.227 428.783 240.099 428.778 239.971C428.766 239.705 428.753 239.439 428.74 239.173L426.358 239.289C426.377 239.678 426.395 240.067 426.411 240.456L428.794 240.355ZM68.7858 247.488C68.7852 247.687 68.7849 247.887 68.7849 248.086C68.7849 248.285 68.7852 248.484 68.7858 248.683L71.1711 248.676C71.1704 248.479 71.1701 248.283 71.1701 248.086C71.1701 247.889 71.1704 247.693 71.1711 247.496L68.7858 247.488ZM428.957 248.086L428.957 247.849L428.957 247.692L428.956 247.488L426.571 247.496C426.571 247.617 426.572 247.738 426.572 247.859C426.572 247.935 426.572 248.01 426.572 248.086C426.572 248.283 426.572 248.479 426.571 248.676L428.956 248.683C428.957 248.559 428.957 248.434 428.957 248.31C428.957 248.235 428.957 248.161 428.957 248.086ZM68.9478 255.817C68.9645 256.211 68.9824 256.605 69.0016 256.999L71.384 256.883C71.3651 256.494 71.3474 256.105 71.331 255.716L68.9478 255.817ZM428.74 256.999C428.75 256.808 428.759 256.617 428.767 256.426C428.777 256.223 428.786 256.02 428.794 255.817L426.411 255.716C426.395 256.105 426.377 256.494 426.358 256.883L428.74 256.999ZM69.4891 264.121C69.5238 264.514 69.5598 264.908 69.5971 265.301L71.9717 265.076C71.9349 264.688 71.8994 264.3 71.8651 263.911L69.4891 264.121ZM428.145 265.301C428.182 264.908 428.218 264.514 428.253 264.121L425.877 263.911C425.843 264.3 425.807 264.688 425.77 265.076L428.145 265.301ZM70.4111 272.39C70.464 272.782 70.5181 273.174 70.5736 273.565L72.9352 273.231C72.8806 272.845 72.8271 272.458 72.7749 272.071L70.4111 272.39ZM427.193 273.391C427.205 273.306 427.217 273.222 427.229 273.137C427.263 272.888 427.297 272.639 427.331 272.39L424.967 272.071C424.915 272.458 424.861 272.845 424.807 273.231L427.168 273.565L427.193 273.391ZM71.714 280.608C71.785 280.997 71.8573 281.386 71.9309 281.775L74.2746 281.331C74.202 280.948 74.1306 280.564 74.0605 280.18L71.714 280.608ZM425.811 281.775C425.885 281.386 425.957 280.997 426.028 280.608L423.681 280.18C423.611 280.564 423.54 280.948 423.467 281.331L425.811 281.775ZM73.3965 288.755C73.4856 289.141 73.576 289.527 73.6676 289.912L75.9881 289.36C75.8977 288.98 75.8085 288.6 75.7206 288.219L73.3965 288.755ZM424.074 289.912C424.166 289.527 424.256 289.142 424.345 288.755L422.021 288.219C421.984 288.382 421.946 288.544 421.908 288.707C421.857 288.925 421.806 289.143 421.754 289.36L424.074 289.912ZM75.4559 296.816C75.5629 297.198 75.6712 297.579 75.7806 297.96L78.073 297.3C77.9649 296.925 77.8581 296.549 77.7525 296.172L75.4559 296.816ZM421.961 297.96C422.071 297.579 422.179 297.198 422.286 296.816L419.989 296.172C419.884 296.549 419.777 296.925 419.669 297.3L421.961 297.96ZM77.8882 304.772C78.0129 305.149 78.1388 305.525 78.2659 305.9L80.5251 305.135C80.3996 304.764 80.2754 304.393 80.1523 304.022L77.8882 304.772ZM419.476 305.9C419.523 305.762 419.569 305.624 419.616 305.486C419.696 305.248 419.775 305.01 419.854 304.772L417.59 304.022C417.535 304.185 417.481 304.349 417.427 304.512C417.357 304.72 417.287 304.927 417.217 305.135L419.476 305.9ZM80.6882 312.607C80.8303 312.977 80.9736 313.347 81.1181 313.716L83.3392 312.846C83.1966 312.482 83.0552 312.117 82.915 311.752L80.6882 312.607ZM416.624 313.716C416.678 313.576 416.733 313.437 416.787 313.298C416.876 313.068 416.965 312.837 417.054 312.607L414.827 311.752C414.736 311.988 414.645 312.224 414.554 312.46C414.503 312.588 414.453 312.717 414.403 312.846L416.624 313.716ZM83.8496 320.302C84.0087 320.666 84.1691 321.028 84.3306 321.39L86.5089 320.418C86.3495 320.061 86.1913 319.703 86.0342 319.345L83.8496 320.302ZM413.411 321.39C413.573 321.028 413.733 320.666 413.892 320.302L411.708 319.345C411.551 319.703 411.392 320.061 411.233 320.418L413.411 321.39ZM87.365 327.843C87.5409 328.198 87.7179 328.553 87.8961 328.907L90.0269 327.835C89.8511 327.486 89.6764 327.136 89.5029 326.785L87.365 327.843ZM409.846 328.907C409.922 328.755 409.999 328.603 410.075 328.45C410.176 328.248 410.277 328.045 410.377 327.843L408.239 326.785C408.151 326.963 408.062 327.141 407.974 327.319C407.888 327.492 407.802 327.664 407.715 327.835L409.846 328.907ZM91.2263 335.212C91.4185 335.559 91.6117 335.905 91.8061 336.251L93.885 335.082C93.6932 334.741 93.5025 334.399 93.3129 334.057L91.2263 335.212ZM405.936 336.251C406.13 335.905 406.323 335.559 406.516 335.212L404.429 334.057C404.359 334.184 404.288 334.311 404.217 334.438C404.098 334.653 403.977 334.867 403.857 335.082L405.936 336.251ZM95.4245 342.395C95.6325 342.733 95.8415 343.07 96.0516 343.406L98.0743 342.142C97.8669 341.81 97.6607 341.477 97.4554 341.144L95.4245 342.395ZM402.009 342.894C402.112 342.728 402.215 342.562 402.317 342.395L400.286 341.144C400.081 341.478 399.875 341.81 399.668 342.142L401.69 343.406C401.797 343.235 401.903 343.065 402.009 342.894ZM99.9499 349.377C100.173 349.704 100.398 350.031 100.623 350.357L102.585 349.001C102.363 348.679 102.141 348.357 101.921 348.033L99.9499 349.377ZM397.119 350.357C397.22 350.21 397.322 350.064 397.423 349.917C397.519 349.776 397.615 349.636 397.711 349.496L397.792 349.377L395.821 348.033C395.601 348.357 395.379 348.679 395.157 349.001L397.119 350.357ZM104.792 356.142C105.03 356.459 105.27 356.775 105.51 357.09L107.407 355.645C107.17 355.334 106.934 355.022 106.699 354.709L104.792 356.142ZM392.232 357.091C392.472 356.775 392.712 356.459 392.95 356.142L391.042 354.709C390.808 355.022 390.572 355.334 390.335 355.645L392.232 357.091ZM109.941 362.677C110.193 362.983 110.447 363.288 110.701 363.592L112.53 362.061C112.279 361.761 112.029 361.46 111.78 361.159L109.941 362.677ZM387.335 363.24L387.434 363.12C387.557 362.973 387.679 362.825 387.801 362.677L385.962 361.159C385.713 361.46 385.463 361.761 385.212 362.061L387.041 363.592C387.139 363.475 387.237 363.357 387.335 363.24ZM381.556 369.848C381.824 369.556 382.091 369.263 382.357 368.97L380.59 367.368C380.327 367.658 380.064 367.947 379.799 368.235L381.556 369.848ZM115.385 368.97C115.651 369.263 115.918 369.556 116.186 369.848L117.943 368.235C117.678 367.947 117.415 367.658 117.152 367.368L115.385 368.97ZM121.111 375.005C121.391 375.286 121.671 375.566 121.952 375.846L123.633 374.153C123.356 373.878 123.079 373.601 122.803 373.324L121.111 375.005ZM375.79 375.846C376.071 375.566 376.351 375.286 376.631 375.005L374.938 373.324C374.663 373.601 374.386 373.878 374.109 374.153L375.79 375.846ZM127.109 380.771C127.401 381.039 127.694 381.306 127.987 381.572L129.589 379.805C129.299 379.542 129.01 379.279 128.722 379.014L127.109 380.771ZM369.755 381.572C370.048 381.306 370.341 381.039 370.633 380.771L369.02 379.014C368.732 379.279 368.443 379.542 368.153 379.805L369.755 381.572ZM133.365 386.256C133.669 386.51 133.974 386.764 134.279 387.016L135.798 385.177C135.496 384.928 135.196 384.678 134.896 384.427L133.365 386.256ZM363.958 386.605C364.098 386.489 364.238 386.372 364.377 386.256L362.846 384.427C362.546 384.678 362.245 384.928 361.944 385.177L363.463 387.016C363.628 386.879 363.793 386.742 363.958 386.605Z" fill="#9499C3"/>
<rect x="68.7849" y="246.975" width="11.9262" height="2.38525" fill="#9499C3"/>
<rect x="417.031" y="246.975" width="11.9262" height="2.38525" fill="#9499C3"/>
<rect width="11.9262" height="2.38525" transform="matrix(-0.819152 -0.573576 -0.573576 0.819152 402.372 342.379)" fill="#9499C3"/>
</g>
<mask id="mask1" mask-type="alpha" maskUnits="userSpaceOnUse" x="48" y="233" width="203" height="178">
<path d="M144.859 405.847C116.449 387.391 93.3973 361.782 78.0216 331.593C62.6459 301.404 55.4876 267.7 57.2662 233.869L250 244.001L144.859 405.847Z" fill="#C4C4C4"/>
</mask>
<g mask="url(#mask1)">
<path fill-rule="evenodd" clip-rule="evenodd" d="M80.2386 263.672C84.5781 309.9 107.662 350.833 141.971 378.944L134.542 388.272C97.5051 357.987 72.6401 313.719 68.262 263.672H80.2386Z" fill="#FABE37"/>
<rect x="94.1223" y="342.452" width="12.6951" height="2.38525" transform="rotate(-35 94.1223 342.452)" fill="#4B30A6"/>
<rect x="75.9407" y="263.672" width="11.9262" height="2.38525" fill="#FABE37"/>
</g>
</svg>
